<?xml version="1.0" encoding="utf-8"?>
<svg xmlns="http://www.w3.org/2000/svg" width="163" height="80" viewBox="0 0 163 80" fill="none">
<g clip-path="url(#clip0_12870_202987)">
<path d="M60.5853 28.8896C59.4823 28.8896 58.3798 28.9353 57.3417 29.0502C52.4758 29.5912 50 32.5507 50 36.0855C50 38.9937 52.0904 41.7343 56.0038 42.4944L60.7202 43.4079C62.4423 43.7462 63.3287 44.1353 63.3287 45.0823C63.3287 45.8094 62.6596 46.571 60.4359 46.571C58.4287 46.571 55.7203 46.2664 53.9968 46.2664C52.3419 46.2664 50.586 47.0278 50.586 50.325C50.586 50.731 50.653 51.2385 50.7364 51.6439C53.2114 51.9322 58.4128 52.389 62.0077 51.9993C66.9746 51.4583 69.4165 48.7015 69.4165 44.9132C69.4165 41.6496 67.4263 38.9941 62.8109 38.132L58.3118 37.2864C56.8734 37.0331 55.9709 36.694 55.9709 35.8655C55.9709 35.0882 56.9237 34.4453 59.216 34.4453C61.473 34.4453 63.4463 34.6822 64.7172 34.6822C66.3729 34.6822 68.0956 33.9714 68.0956 30.6744C68.0956 30.2347 68.0447 29.8279 67.9621 29.406C66.197 29.1869 63.391 28.89 60.5878 28.89H60.5853V28.8896ZM85.306 31.6038L77.7806 39.9245L83.8338 49.5642C84.9545 51.3227 86.4267 52.2183 88.8184 52.2183C90.3894 52.2183 91.6943 51.8472 92.2955 51.5603L85.0045 40.4484L90.1727 34.9016L98.6514 48.3636L93.4826 59.3727C94.0021 59.6425 95.0551 59.9645 96.3762 59.9979C98.6516 60.0485 99.8887 59.1694 100.808 57.106L113 29.6083C112.499 29.3379 111.378 29.0337 110.474 29.0168C108.903 28.9831 106.796 29.3045 105.458 32.5509L101.511 41.9708L93.7684 29.2197C93.2667 29.0669 92.0449 28.8479 91.1585 28.8479C88.4163 28.8475 86.8947 29.8618 85.306 31.6038ZM71.384 25.1777V52.0674C71.8187 52.1339 72.2704 52.1681 72.789 52.1681C76.7017 52.1681 77.4886 51.0014 77.4886 48.9716V21.1527C77.0193 21.0508 76.5174 21 76.0157 21C72.0691 21 71.384 23.1317 71.384 25.1777Z" fill="#969EA6"/>
<g opacity="0.4">
<mask id="mask0_12870_202987" style="mask-type:luminance" maskUnits="userSpaceOnUse" x="50" y="21" width="64" height="23">
<path d="M103.425 37.4038C103.408 37.4452 103.41 37.438 103.43 37.3902C103.429 37.3945 103.427 37.3987 103.425 37.4038ZM105.458 32.5507C105.458 32.5507 103.628 36.9199 103.43 37.3902C103.662 36.8592 104.349 36.4225 104.853 36.351C104.853 36.351 108.982 35.7629 109.27 35.7223C109.888 35.6351 110.552 35.1335 110.762 34.6581L113 29.6081C112.499 29.3377 111.378 29.0335 110.474 29.0166C110.41 29.0151 110.345 29.0144 110.278 29.0144C108.731 29.0147 106.741 29.4371 105.458 32.5507ZM57.3419 29.0502C52.4758 29.5912 50 32.5507 50 36.0855C50 37.9845 50.8921 39.8124 52.6013 41.0634C52.6147 41.0733 52.6281 41.0835 52.6415 41.0926C52.7727 41.1897 53.0135 41.3494 53.175 41.4436C55.0615 42.5177 59.1773 42.8403 61.0949 42.5685C62.2856 42.3994 64.834 42.0368 66.1311 41.8525C67.3922 41.6727 68.8383 41.9346 69.1904 43.1029C68.5525 40.6927 66.5376 38.8274 62.8105 38.1313L58.312 37.2857C56.873 37.0325 55.9703 36.6933 55.9703 35.8649C55.9703 35.0876 56.923 34.4446 59.2154 34.4446C61.4723 34.4446 63.4456 34.6816 64.7166 34.6816C66.3723 34.6816 68.095 33.9707 68.095 30.6737C68.095 30.2341 68.0441 29.8273 67.9615 29.4048C66.1957 29.1871 63.3883 28.8896 60.5836 28.8896C59.4817 28.8896 58.38 28.936 57.3419 29.0502ZM85.3068 31.6023L77.7808 39.9243C77.7808 39.9243 78.3277 40.1192 79.0146 40.0214C79.4612 39.958 84.2821 39.2727 85.0614 39.1623C85.7918 39.0582 86.6437 38.689 87.2274 38.0632L90.1731 34.9016L91.7024 37.331C92.051 37.884 92.8732 38.0518 93.6312 37.9441C93.8153 37.9177 96.9099 37.478 97.3963 37.4088C97.9256 37.334 98.8445 37.5794 99.1226 38.0361L93.7688 29.2194C93.2671 29.0667 92.0453 28.8477 91.1589 28.8477C88.4163 28.8475 86.8954 29.8618 85.3068 31.6023ZM71.384 25.1771V43.1202C71.384 42.8005 71.3982 42.7462 71.4093 42.4593C71.4361 41.7205 71.9829 41.0204 72.9146 40.8878C73.5786 40.7937 75.4912 40.5216 76.0607 40.441C76.5421 40.3724 77.3635 40.0236 77.4884 39.11V21.1527C77.0193 21.0508 76.5174 21 76.0157 21C72.0691 21 71.384 23.1311 71.384 25.1771Z" fill="white"/>
</mask>
<g mask="url(#mask0_12870_202987)">
<path d="M48.3228 61.5203L41.578 12.9883L114.678 2.59927L121.423 51.1313L48.3228 61.5203Z" fill="url(#paint0_linear_12870_202987)"/>
</g>
</g>
</g>
<defs>
<linearGradient id="paint0_linear_12870_202987" x1="82.5175" y1="39.2351" x2="79.96" y2="21.2401" gradientUnits="userSpaceOnUse">
<stop stop-color="white"/>
<stop offset="1" stop-color="white" stop-opacity="0"/>
</linearGradient>
<clipPath id="clip0_12870_202987">
<rect width="63" height="39" fill="white" transform="translate(50 21)"/>
</clipPath>
</defs>
</svg>