<?xml version="1.0" encoding="utf-8"?>
<svg xmlns="http://www.w3.org/2000/svg" xmlns:xlink="http://www.w3.org/1999/xlink" fill="none" height="80" viewBox="0 0 163 80" width="163">
  <mask id="a" height="62" maskUnits="userSpaceOnUse" width="50" x="57" y="9">
    <path d="m107 9h-50v62h50z" fill="#fff"/>
  </mask>
  <g fill="#969ea6" mask="url(#a)">
    <path d="m75.8354 36.0623-8.7109 9.6536c.4984 1.1073 1.0584 2.1857 1.6774 3.23l7.0318-7.7962z"/>
    <path d="m72.3843 53.9198 3.4525-3.8165v-5.096l-5.5844 6.1916c.6449.9098 1.3515 1.8179 2.1319 2.7209z"/>
    <path d="m75.8366 57.4234v-3.4725l-1.6911 1.8747c.5351.5423 1.0988 1.0749 1.6911 1.5978z"/>
    <path d="m64.2842 33.123c.0188.872.072 1.7904.1715 2.7519l2.48-2.7519z"/>
    <path d="m70.4171 33.1231-5.4386 6.0196c.2785 1.3178.64 2.6166 1.0822 3.8886l8.9477-9.9151z"/>
    <path d="m88.1719 57.4234c.5934-.5275 1.1571-1.0601 1.6911-1.5978l-1.6911-1.8747z"/>
    <path d="m88.1719 41.1497 7.0319 7.7962c.6164-1.0455 1.1758-2.1237 1.6756-3.23l-8.7144-9.6519z"/>
    <path d="m88.1719 45.009v5.084l3.4593 3.8267c.7787-.9029 1.4853-1.8127 2.1319-2.7243z"/>
    <path d="m105.866 19.1692-.097-.344-.216-.2752c-3.679-4.6075-14.0212-9.5522-23.552-9.5522-9.5307 0-19.8693 4.9412-23.5499 9.5574l-.2195.2752-.0961.3439c-2.4765 8.7009-3.1832 34.8724 22.9394 51.2525l.9261.5796.9244-.5796c26.1256-16.387 25.4176-42.5567 22.9406-51.2576zm-23.7947 49.7132c-26.1431-16.3854-24.1656-42.3315-22.1864-49.2832.8758-1.0426 1.8883-1.9613 3.01-2.7312 4.5536-3.2265 12.1137-6.1176 19.1061-6.1176 8.9785 0 18.892 4.7606 22.185 8.8969 1.9 6.68 3.8 30.8942-19.2436 47.3105-.9147.657-1.8717 1.2985-2.8711 1.9246z"/>
    <path d="m89.002 33.123 8.951 9.9152c.4393-1.2728.8002-2.5715 1.0805-3.8887l-5.4403-6.0196z"/>
    <path d="m99.5513 35.868c.1046-.9545.1578-1.8729.1715-2.7518h-2.6481z"/>
    <path d="m86.3091 26.5428.5608-1.0767.175-1.2039-.5832 1.0698z"/>
    <path d="m85.8753 20.58-.8507-.8703-1.0856-.54.8369.8874z"/>
    <path d="m80.0833 19.1489-1.0874.5418-.8455.8703 1.0959-.5229z"/>
    <path d="m76.936 24.2312.1784 1.2039.5625 1.0784-.156-1.2125z"/>
    <path d="m80.7847 28.801 1.1937.2029 1.1988-.2029-1.1988-.2253z"/>
    <path d="m99.7966 30.643s.0206-6.0798-.8043-7.3216c-2.3926-3.2282-9.8738-6.5355-16.988-6.5355s-14.5937 3.3004-16.988 6.5355c-.8232 1.2418-.8009 7.3216-.8009 7.3216zm-20.5347-2.1172-1.2126.8875.4957-1.5084c-.4568-.2304-.8634-.5494-1.1964-.9385s-.5858-.8405-.7437-1.3282-.2178-1.0019-.1762-1.5129c.0415-.511.1837-1.0087.4183-1.4643l-1.1868-.8737c0-.0172 1.4218-.0361 1.4252-.0516h.0583c.0716-.5011.2426-.9827.5031-1.4162.2605-.4336.605-.8104 1.0133-1.108.4083-.2977.872-.5102 1.3636-.6249.4917-.1147 1.0013-.1293 1.4987-.043l.0171-.055c.0172 0 .4768-1.3037.494-1.302l.4545 1.3553c.5053-.0843 1.0223-.067 1.521.0507.4986.1176.969.3335 1.3838.6349.4149.3014.7659.6825 1.0327 1.121s.4441.9258.5217 1.4336h1.5436l-1.2366.9185c.459.9238.545 1.9895.2401 2.9754-.2742.8284-.8178 1.5406-1.5436 2.0225-.1029.0688-.2109.1342-.3207.1961-.024.0138-.048.031-.072.043l.4442 1.3759-1.1594-.841-.0618.055c-.1387.1311-.2853.2534-.439.3664-.6527.4714-1.4356.7275-2.2399.7326-1.0274-.0163-2.0095-.4269-2.7442-1.1471l-.0703.0516z"/>
    <path d="m79.423 27.9582c.0411.1083.1076.2051.1939.2821.1533.1495.3516.2441.5641.2689.2124.0249.4271-.0212.6107-.1313.2658-.1582.9673-.172 1.2194-.172s.957 0 1.2212.172c.1501.0908.322.1389.4973.1393.2527-.0027.4949-.1017.6775-.2769.0858-.0802.1501-.1807.1869-.2924.0123-.0277.022-.0565.0292-.086.0978.1187.2367.2632.3842.4094.2864.2855.5917.5555.5917.5555s-.1612-.3715-.343-.7344c-.0805-.1672-.1692-.3302-.2659-.4885h.036c.1343.0049.267-.0292.3825-.098.189-.0999.3399-.2596.4292-.4542.0893-.1947.1121-.4135.0648-.6224-.0704-.301.1372-.9752.2195-1.204v-.0189c.072-.2528.3001-.8977.5282-1.099.1601-.1417.2693-.3323.3109-.5423.0415-.2101.013-.4281-.081-.6203-.0434-.0953-.108-.1795-.1887-.246-.0306-.0296-.0646-.0556-.1012-.0774.1389-.055.3104-.1375.4819-.2253.3671-.1909.7358-.4041.7358-.4041s-.4202.0412-.8284.1032c-.1903.0309-.3773.0636-.5145.0997.0064-.0144.0116-.0294.0154-.0447.0427-.1245.0498-.2586.0206-.387-.0347-.2134-.1394-.4091-.2975-.5562-.1581-.147-.3606-.2369-.5755-.2556-.3052-.0275-.8815-.4316-1.0839-.5882-.2024-.1565-.7701-.5658-.8884-.8496-.084-.1967-.2303-.3602-.4164-.465s-.4014-.1451-.6127-.1146c-.1121.0134-.2196.0528-.3138.1153-.0293.0156-.0574.0335-.0841.0533 0-.1445-.0326-.3251-.0617-.516-.0669-.4128-.1595-.8376-.1595-.8376s-.0909.4248-.1578.841c-.0303.1708-.0515.343-.0635.516-.024-.0206-.0514-.0378-.0771-.0585-.096-.064-.205-.1057-.319-.1221-.2115-.0307-.4272.0097-.6133.1149-.1862.1052-.3324.2692-.4158.4664-.1201.2855-.686.7104-.8918.86-.2059.1496-.7753.5555-1.084.583-.2127.0199-.413.1096-.5699.2551-.1568.1454-.2615.3387-.2979.5498-.0275.1292-.0174.2635.0291.387.0022.0166.0069.0329.0138.0482-.1407-.0379-.3311-.0706-.5249-.1015-.4081-.0619-.8232-.1049-.8232-.1049s.367.215.7358.4059c.1715.0894.343.172.4716.2235-.0365.022-.071.0473-.1029.0757-.0766.0704-.138.1559-.1801.2511-.0937.1928-.1215.4111-.0791.6213.0425.2102.1529.4004.3141.5414.2298.2029.4596.8685.53 1.1144.0703.246.2898.9116.2195 1.2143-.0459.2089-.0222.427.0673.6212.0895.1941.24.3535.4284.4537.1151.0666.2461.1005.379.098h.048c-.084.1308-.1715.3113-.2693.4919-.1818.3612-.343.7327-.343.7327s.3053-.2735.5934-.559c.1424-.141.2813-.2855.3757-.399.0017.031.0085.0585.0222.0877zm-.7186-.6122c-.1536-.0801-.2764-.2089-.3493-.3663-.0729-.1575-.0918-.3347-.0537-.504.096-.4162-.2144-1.2813-.2247-1.3157-.0257-.0894-.2778-.9201-.5883-1.1919-.1297-.1146-.2179-.2691-.2508-.4393s-.0086-.3466.069-.5015c.1715-.3697.5849-.3835.9193-.2751.1531.0482.3031.1057.4494.1719.3207.1428.3721.2443.4013.3113.024.0528.0616.0981.1089.1314.0474.0333.1027.0532.1604.0578.0936.0197.1912.004.274-.0439.0829-.0479.1453-.1247.1753-.2158.025-.0911.0166-.1883-.0236-.2738-.0403-.0855-.1098-.1537-.1959-.1923-.0492-.0287-.1052-.0438-.1621-.0438s-.1128.0151-.1621.0438c-.0651.031-.1715.074-.5008 0-.1579-.0344-.3136-.078-.4665-.1307-.1237-.0363-.2398-.0945-.343-.172l-.0171-.0172c-.0867-.063-.1533-.1497-.1919-.2498-.0387-.1001-.0477-.2092-.026-.3143.0286-.1711.1127-.3281.2392-.4466.1265-.1184.2884-.1918.4606-.2087.4271-.0361 1.1491-.6002 1.1748-.6208.0258-.0207.7873-.5384.9571-.9288.0682-.1599.1873-.2927.3387-.3777.1514-.0849.3266-.1172.4982-.0918.3962.0464.542.442.542.7963.0008.1695-.0078.3389-.0257.5074-.0395.3233-.1115.4059-.163.4575-.0425.039-.0735.089-.0899.1444-.0163.0555-.0172.1144-.0027.1703.0065.0962.0491.1863.1193.2521s.1628.1024.2589.1024.1886-.0366.2588-.1024c.0703-.0658.1129-.1559.1194-.2521.0145-.0561.0134-.1151-.0033-.1706-.0166-.0555-.0481-.1054-.0911-.1441-.048-.0499-.1235-.1325-.1612-.4524-.0181-.1713-.0267-.3436-.0257-.5159-.0015-.1344.0218-.2679.0686-.3939-.0007-.0034-.0007-.0069 0-.0103.0334-.104.0956-.1963.1795-.266.0838-.0698.1858-.1141.2939-.1279.1711-.0248.3456.0076.4966.0921.1509.0846.2699.2166.3386.3758.1715.3921.9262.9098.9553.9304.0292.0207.7529.5848 1.1766.6209.1722.0162.3342.0891.4607.2074.1266.1182.2106.275.239.4461.0823.3973-.247.6553-.5865.7654-.1921.0619-.3431.1032-.4631.1307-.343.0688-.4374.0258-.5025 0-.0501-.0275-.1065-.041-.1635-.0392s-.1125.0189-.1607.0495c-.0859.0386-.1549.1071-.1943.1928s-.0465.1828-.0201.2733c.032.0886.0951.1625.1775.2078s.1785.0588.2702.0382c.0595-.004.1165-.0256.1638-.062s.0828-.0861.102-.1427c.0343-.0636.084-.172.3996-.3079.1477-.0656.2988-.123.4528-.172.1254-.0446.2581-.0645.391-.0584.0074-.0013.015-.0013.0223 0 .1083-.0024.2149.0274.3065.0855.0915.0581.1639.142.2081.2412.0773.1555.1012.3321.068.5026-.0332.1704-.1216.3251-.2516.4399-.3207.2804-.5797 1.1627-.5899 1.204-.0343.098-.3139.9098-.2247 1.3071.0372.1676.018.3429-.0546.4985s-.1945.2827-.3467.3614c-.3534.2012-.6964-.0344-.9022-.3216-.0902-.1174-.1738-.2397-.2504-.3663-.1921-.3251-.1715-.4386-.1629-.516.0117-.0558.0078-.1138-.0113-.1675s-.0526-.1011-.0968-.1369c-.0635-.0718-.1513-.1173-.2463-.1278-.0951-.0104-.1907.0149-.2682.071-.0732.0592-.1231.1425-.1407.2351-.0176.0927-.0018.1886.0447.2706.0874.1599.1612.1823.2589.1943.0978.012.1887.0292.4374.313.0974.1097.189.2246.2744.344.2075.2855.3259.688.0257.9631-.1231.1216-.283.1989-.4546.2198-.1716.0208-.3453-.0159-.4938-.1045-.2899-.172-.9262-.1909-1.2006-.1909-.0703 0-.1115 0-.1218 0-.036 0-.9518-.0293-1.3171.1874-.1486.0886-.3223.1254-.4939.1045-.1715-.0208-.3314-.0981-.4546-.2197-.0792-.0733-.1359-.1678-.1632-.2723-.0274-.1046-.0243-.2148.0089-.3176.0006-.0063.0006-.0127 0-.0189.0359-.1274.0939-.2473.1715-.3543.1046-.1462.1955-.2563.2709-.344.2522-.2872.3654-.3062.4391-.3165.0577-.0038.1131-.0241.1597-.0585.0465-.0345.0821-.0816.1027-.1358.0529-.0821.0723-.1814.0541-.2774-.0181-.096-.0725-.1812-.1517-.2381s-.1773-.081-.2737-.0673c-.0965.0137-.184.0641-.2444.1408-.0441.0354-.0773.0826-.0958.1362-.0185.0535-.0216.1113-.0088.1665.0086.0756.0257.1874-.1715.5159-.0583.1015-.1389.2202-.247.3715-.1955.3044-.542.5401-.8953.3406z"/>
    <path d="m80.5978 25.5262c.0424.0424.089.0804.1389.1135h.0138c.4542.3163 1.0138.4418 1.5591.3496s1.0329-.3947 1.3586-.8429.4635-1.0063.384-1.5551c-.0796-.5488-.3701-1.0446-.8095-1.3812-.4395-.3367-.9928-.4875-1.5417-.4202-.5489.0672-1.0498.3473-1.3954.7802-.3456.4328-.5086.9842-.4539 1.536.0546.5518.3224 1.0603.7461 1.4166zm3.4148-1.5049c-.0249.3548-.1433.6967-.3431.9906l-.1475-.1548-.6037.2494-.4442-.516.2556-.8736.6997-.1996.3568.5642zm-1.9604-1.6821.6226-.172.0154-.1823c.3886.1404.7246.3974.9622.7361l-.2127.0792-.0154.626-.6603.1909v-.0172l-.7118-.4988zm.3173 2.2462.494.571-.3688.4953.0995.1565c-.1893.0566-.3857.0856-.5831.086-.2075.0011-.4138-.0321-.6106-.098l.1029-.16-.4202-.4901h.0103l.4099-.5693zm-1.0119-2.6091v.1978l.6037.172v.755l-.6997.4627-.6552-.2924.06-.6209v-.0292l-.1715-.0774c.2331-.2609.5298-.4565.861-.5676zm-1.3566 1.9022c0-.0292 0-.0585 0-.0894l.1715.0602.4082-.4988.6586.2941.2092.872-.4185.5899h.0103l-.566-.2855-.144.1582c-.2146-.3269-.3296-.7093-.331-1.1007z"/>
    <path d="m79.7695 39.583c.1015.0106.2042.0008.3019-.0287.0978-.0295.1887-.0782.2675-.1433.1784-.1222.3248-.2856.4271-.4764-.3122-.2271-.7564-.2821-1.048-.0447-.0795.0473-.1479.1113-.2006.1874-.2779.3939.156.5057.2521.5057z"/>
    <path d="m84.0092 35.3297c.0789-.0671.4391-.5642.1458-.8411-.223-.2115-.4888-.0997-.6603.0327-.0735.0477-.1399.1056-.1973.172-.1269.1582-.343.8875-.4322 1.1833.3562-.0716.6933-.2175.9896-.4283.0537-.0365.1053-.0761.1544-.1186z"/>
    <path d="m78.3618 59.3908 1.2846 1.204c.7718.5503 1.5779 1.0955 2.4252 1.6235.8575-.5383 1.679-1.0921 2.4645-1.6511l1.2503-1.1712v-26.3193h-7.4246zm5.8793-3.9729c-.0789.1238-.2504 0-.1955-.1083.1355-.2649.0343-.7035-.1423-.829-.1767-.1256-.7066-.172-1.5573.5589-.8507.731-1.3001 2.0931-1.439 2.6796s-.0943 1.1764.1921 1.5875c.2641.3818.8918.3044 1.2006.1427.3087-.1616.7049-.7636.7786-.8685.0738-.1049.2281 0 .1938.0894s-.036.2391-.4699.7912c-.7358.9321-1.8026.5159-1.9278.4867-.1252-.0293-1.228-.6037-.9999-2.2032s1.2846-2.6125 2.2382-3.2179 1.6945-.3904 1.8129-.344c.2984.1032.626.7362.3155 1.2315zm.9056-7.3783c.0216.0607.0287.1257.0206.1896-.008.0639-.031.1251-.0669.1785-.1321.2562-.5145.4351-.7375.4953-.4197.0762-.8465.105-1.2726.086 0 0-.2933 1.5307-.415 1.9125.6225.1032.8747-.0929.9227-.1307.0558-.0463.1003-.1047.13-.1709s.0439-.1384.0415-.2109c.0189-.098.1389.0155.1715.0946.0455.1161.0539.2435.024.3646-.024.1531-.1715.4059-.5488.571-.2892.0694-.5888.0839-.8833.043-.367 1.3656-1.0548 2.0639-1.1868 2.1636-.1582.1612-.3559.2778-.5733.3381-.2173.0604-.4467.0624-.665.0059-.3996-.1032-.65-.5074-.5969-.7757.0532-.2683.2178-.0808.2178-.0189.0075.1043.0464.2039.1115.2855.0412.0533.343.2373.8061 0 .4631-.2374.9073-1.5479 1.0565-2.0776-.4596-.086-.7975.0619-.885.1565-.0685.1061-.1016.2315-.0943.3577 0 .0843-.0617.0946-.1458.0258-.063-.0733-.1033-.1635-.1158-.2594-.0125-.096.0033-.1936.0455-.2806.1904-.516 1.0462-.5573 1.3189-.5573.2237-.6034.3707-1.2326.4373-1.8729-.3735-.053-.7541-.0201-1.113.0963-.0714.0313-.1322.0824-.1754.1474-.0432.0649-.0668.1409-.0682.2189.0086.1531.343.2339.3945.2666.0514.0327.2006.1049.1166.1634-.0794.0464-.1679.075-.2594.0839-.0914.0089-.1837-.0021-.2706-.0323-.2123-.0475-.3973-.1773-.5145-.3612-.06-.11-.1818-.3732.1115-.7464s1.3223-.4403 2.1078-.3939c.7856.0465 1.3344.117 2.0393-.024.0832-.0195.1612-.057.2284-.1099.0673-.0529.1222-.1199.1609-.1963.0343-.0739.0926-.0705.1252-.0258zm-3.756-6.4684c-.3019-.1273-.7375.1049-.9725.4918-.0703.1187-.084.0516-.1235.0224-.0371-.032-.0675-.0712-.0892-.1152-.0223-.0396.0686-.1273.0961-.172.0274-.0447.5454-.688 1.336-.4971.6175.1531.6964.5022.6638.8084-.0326.3061-1.5728 2.8275-1.782 3.3744s-.0823.8737.2144.8995 1.0136-.0671 1.4904-1.1007c.4768-1.0337 1.2194-2.6263 1.3824-2.9565.1629-.3302.403-.7894.4493-.86.0463-.0705.0395-.0997.1715-.0808.1321.0189.4802.0636.5506.0636.0703 0 .0257.1411-.0292.2099s-1.6328 3.223-1.842 3.8714.1715.8049.2607.8256c.1321.0395.5523.067.614-.2597.0246-.1155.0126-.2358-.0343-.344-.0033-.0094-.0029-.0197.0013-.0287s.0117-.016.021-.0195c.0433-.0218.088-.0408.1338-.0567.0686-.0207.1355 0 .1492.0378.0583.1301.0885.271.0885.4136s-.0302.2836-.0885.4137c-.1715.325-.5488.5159-1.0291.4471-.3636-.0516-.8781-.4695-.8884-.9545-.1855.306-.4565.5505-.7794.7034s-.6834.2073-1.0369.1565c-1.2211-.1719-.5934-1.627-.427-1.8815.4922-.7499 1.4149-2.3924 1.511-2.597.096-.2047.2812-.6811-.012-.8084zm-1.3944-3.0081c.371-.0986.7637-.077 1.1217.0619.2881-.516.5951-1.5479.9947-2.5403-.2107-.021-.4149-.0848-.6003-.1874-.0686-.0293-.0257-.1239-.0257-.1239.0067-.049.0067-.0988 0-.1479 0-.0705.036-.043.0943.0086.1886.1138.3979.1887.6158.2202.1166-.2838.2469-.5676.379-.8256.6483-1.252 1.7923-1.3036 2.2296-.8599.2247.2236.1115.7447-.1852 1.1265-.259.344-.9227.7808-1.7631.9305-.2676 1.0078-.8576 2.0638-1.1423 2.5351.6274.3335 1.3336.4893 2.0427.4506.4682-.0155 1.1508-.6673 1.1851-.7017s.1286-.0706.1286 0c.014.0917.014.1851 0 .2769-.181.3588-.4594.659-.8033.8659-.3438.2069-.7389.3122-1.1399.3036-.4973.012-1.0599-.2425-1.7356-.688-.1273.2031-.2965.3764-.4962.5084s-.4252.2197-.6615.257c-.0875.0086-1.0942.043-1.156-.5039-.0617-.547.5746-.8565.9176-.9597z"/>
  </g>
</svg>