<?xml version="1.0" encoding="utf-8"?>
<svg xmlns="http://www.w3.org/2000/svg" xmlns:xlink="http://www.w3.org/1999/xlink" fill="none" height="80" viewBox="0 0 163 80" width="163">
  <mask id="a" height="44" maskUnits="userSpaceOnUse" width="105" x="29" y="16">
    <path d="m134 16h-105v44h105z" fill="#fff"/>
  </mask>
  <g fill="#969ea6" mask="url(#a)">
    <path clip-rule="evenodd" d="m56.0281 22.7468c.1729-1.3811 0-3.3856 1.0623-4.3267.3212-1.4667 2.6559-1.1244 2.2853-2.0656-.2224-.5744-1.3218-.3544-1.7665-.1955-1.5628.4885-3.1503.8965-4.7559 1.2222l-1.5564-.44c-2.0136.2689-3.1747 1.8456-4.2865 3.1045-.9388 1.0511-2.1988 3.6666-1.2353 5.17 0 .3422-.1112.6722-.1606 1.0144l2.273 3.3c.7906.55.8894.9656 1.7417 1.5156l.5189.7822c.977.4168 2.0727.4731 3.0882.1589 3.2735.3055 2.9276-6.2823 3.9653-7.6634-.1803-.6512-.5985-1.213-1.1735-1.5766zm-14.1565 19.7633c.8372-.1283 1.6632-.3204 2.4706-.5744.9882-.4889 4.3976-2.86 3.3106-4.7789-.3336-4.0456-5.2624-.6234-7.4118-2.0411-2.0506-.2689-4.4347-4.2534-5.0647-5.9523-.0907-.3576-.2594-.6913-.4941-.9777 0-.0612-.21.1833-.21.1222-.6177.7211-.5189 1.3444-.6053 3.0922h-.84c.018.4672-.1307.9258-.42 1.2956l-.1853.3177c-.5312-.1711-.2594.0734-.4818-.3544-1.9641.0489-1.8282 1.9922-2.7176 3.1044.037 3.63 7.3129 8.1156 12.6494 6.7467zm24.15-11c-2.2575.2641-4.4202 1.0513-6.3124 2.2978-.4843.3286-.9031.743-1.2353 1.2222-.2291.4137-.3035.8941-.21 1.3567.0268.2902.1128.572.253.8283.1401.2564.3314.4818.5623.6628 3.9036-.2811 10.6606-.5256 11.9824 2.7133.0476.28.1094.5573.1853.8311 1.2353-.3178.3459-.2078 2.2359.0856.7534-.0136 1.5015-.1287 2.2235-.3422.2073-.0593.3867-.1892.5065-.3667-.0203-.1583-.0203-.3184 0-.4767.3216.0312.6459-.0236.9388-.1589 1.8035-.2811.8523-1.1244 1.7047-2.0655-.5806-6.1234-6.8559-7.5289-12.7977-6.6245zm-6.9547 13.1267c-.9018.6844-1.2353.5133-1.8159 1.5766 0 0 .0865.1589 0 .1589.5435 1.0634 1.7788 1.4911 2.6929 2.2367.2842.2444 1.05 1.5522 1.4083 1.65.4076.4767.6794 1.8211.9388 1.8211.2841.3667 0 1.2222.2594 1.6011 0 1.5767-.21 1.6989-.4818 1.9922 0 .11.1483.4034.1483.5134s.7164.5255 1.0006.4644c.8647 0 4.4347 2.7867 4.7188 3.3245 2.557.1833 2.3718-.5867 4.1382-1.3323.4818-.1955.8647 0 1.2353-.33s.3583-.99.6671-1.32c.0123-6.2333-8.5606-12.1366-14.91-12.3566zm-10.08 1.43c-.3583.3666-1.3465.5133-1.6183.9411-.6138 1.014-1.3298 1.9641-2.137 2.8355-2.4706 2.2734-7.6094 3.4223-10.1665 1.2223-.1729 0-.0741.11.1235.7333.1853 1.2222 1.1489 3.9478.7906 4.6567.2347.7822.4694.5011.9141.9288.4448.4278.42 1.0634.7536 1.2223l1.2353-.0734c.0741.2078.1482.4278.21.6478l1.507-.11c.2841.0611 1.1365.5011 1.3836.5622l1.6676-.11c.6083.1105 1.2337.0868 1.8316-.0696.5979-.1563 1.1536-.4414 1.6272-.8348.6053-.4034 1.2353-.3422 1.7912-.7945.8758-.7942 1.6328-1.7078 2.2482-2.7133 1.2353-2.1755.803-7.3333-.2964-8.6533-.42-.4889-.9265-.5011-1.8653-.3911z" fill-rule="evenodd"/>
    <path d="m110.455 31.8889c5.275 0 8.833 3.3 8.833 9.1911 0 7.4189-4.942 9.6067-10.031 9.6067h-6.868v-15.9011-2.8845zm-1.544 15.2411c2.915 0 5.275-.9533 5.275-6.0378 0-4.3266-2.36-5.7688-5.275-5.7688h-1.532v11.8066zm17.85.6478c0 1.3689.074 2.8722.074 2.8722h-5.102v-15.8644-2.8845h12.045v3.6667s-2.693-.0611-3.607-.0611h-3.41v3.7155h6.251v3.4589h-6.251zm-34.5387-.88c-.5566.0344-1.1142-.0467-1.6373-.2381-.523-.1913-.9999-.4887-1.4-.8731-.4-.3843-.7145-.8472-.9233-1.3588-.2087-.5116-.3071-1.0608-.2888-1.6122v-.2078s4.4594-.11 5.9665-.11c2.5694 0 3.6317 0 5.6453-.0611v-1.4178c0-6.4044-2.7424-9.5211-8.4-9.5211-2.6065 0-8.6471.9656-8.6471 9.9489 0 5.9767 3.0635 9.5578 8.4 9.5578 3.0769.1597 6.1198-.7005 8.6471-2.4445-.1977-.3055-1.7665-3.08-1.9642-3.3855-1.5619 1.1403-3.4572 1.7454-5.3982 1.7233zm-4.2494-7.8956c.0741-1.0877.4694-3.6666 3.2488-3.6666s3.0018 2.3833 3.0018 3.6666v.22h-6.263z"/>
  </g>
</svg>