<?xml version="1.0" encoding="utf-8"?>
<svg xmlns="http://www.w3.org/2000/svg" fill="none" height="80" viewBox="0 0 163 80" width="163">
  <g fill="#969ea6">
    <path d="m73.2574 41.4618c0 4.997-3.8197 8.6792-8.5074 8.6792-4.6876 0-8.5073-3.6822-8.5073-8.6792 0-5.0321 3.8197-8.6791 8.5073-8.6791 4.6877 0 8.5074 3.647 8.5074 8.6791zm-3.7241 0c0-3.1226-2.2139-5.2591-4.7833-5.2591s-4.7832 2.1365-4.7832 5.2591c0 3.0913 2.2138 5.2592 4.7832 5.2592s4.7833-2.1718 4.7833-5.2592z"/>
    <path d="m91.6104 41.4618c0 4.997-3.8197 8.6792-8.5073 8.6792-4.6877 0-8.5074-3.6822-8.5074-8.6792 0-5.0282 3.8197-8.6791 8.5074-8.6791 4.6876 0 8.5073 3.647 8.5073 8.6791zm-3.7241 0c0-3.1226-2.2138-5.2591-4.7832-5.2591-2.5695 0-4.7833 2.1365-4.7833 5.2591 0 3.0913 2.2138 5.2592 4.7833 5.2592 2.5694 0 4.7832-2.1718 4.7832-5.2592z"/>
    <path d="m109.198 33.3071v15.5817c0 6.4096-3.693 9.0274-8.06 9.0274-4.11 0-6.5838-2.8135-7.5167-5.1144l3.2423-1.3813c.5774 1.4127 1.9921 3.0796 4.2714 3.0796 2.795 0 4.527-1.7648 4.527-5.0869v-1.2483h-.13c-.834 1.0526-2.44 1.9722-4.466 1.9722-4.2406 0-8.1253-3.78-8.1253-8.644 0-4.8991 3.8847-8.7104 8.1253-8.7104 2.022 0 3.628.9196 4.466 1.9409h.13v-1.4126h3.536zm-3.273 8.186c0-3.056-1.992-5.2904-4.527-5.2904-2.5691 0-4.7217 2.2344-4.7217 5.2904 0 3.0248 2.1526 5.2279 4.7217 5.2279 2.535 0 4.527-2.2031 4.527-5.2279z"/>
    <path d="m115.029 24.1738v25.4348h-3.632v-25.4348z"/>
    <path d="m129.184 44.3184 2.891 1.9721c-.933 1.4127-3.181 3.8466-7.066 3.8466-4.818 0-8.416-3.8113-8.416-8.6792 0-5.1613 3.629-8.6791 7.999-8.6791 4.401 0 6.554 3.5844 7.257 5.5213l.386.9861-11.336 4.8052c.868 1.7413 2.217 2.6296 4.11 2.6296 1.896 0 3.212-.9548 4.175-2.4026zm-8.897-3.1226 7.578-3.2205c-.417-1.0839-1.671-1.8391-3.147-1.8391-1.892 0-4.527 1.71-4.431 5.0596z"/>
    <path d="m42.4935 39.2041v-3.6822h12.1244c.1186.6417.1797 1.4009.1797 2.2226 0 2.7626-.7379 6.1787-3.1161 8.6126-2.3133 2.4652-5.2689 3.78-9.1841 3.78-7.2571 0-13.3595-6.0495-13.3595-13.4765s6.1024-13.4765 13.3595-13.4765c4.0147 0 6.8747 1.6122 9.0235 3.7135l-2.5388 2.5982c-1.5409-1.4791-3.6286-2.6295-6.4886-2.6295-5.2994 0-9.4441 4.3708-9.4441 9.7943s4.1447 9.7944 9.4441 9.7944c3.4374 0 5.395-1.4127 6.6491-2.6961 1.0171-1.0409 1.6862-2.5279 1.95-4.5587z"/>
  </g>
</svg>