<?xml version="1.0" encoding="utf-8"?>
<svg xmlns="http://www.w3.org/2000/svg" fill="none" height="80" viewBox="0 0 163 80" width="163">
  <g fill="#969ea6">
    <path d="m41.3831 24.7363s3.0836-2.3588 6.133-2.4327c0 0 6.133-.7816 5.5504 5.5503 0 0-1.7081-5.4707-9.2734-.9151l-17.9385 13.7211-.0057-.0228s-3.0807 2.3617-6.1301 2.4327c0 0-6.1329.7816-5.5532-5.5503 0 0 1.7024 5.4566 9.2762.8867l.0085-.0398z"/>
    <path d="m41.7217 31.2671s3.0836-2.3589 6.133-2.4328c0 0 6.133-.7815 5.5504 5.5504 0 0-1.7109-5.4708-9.2734-.9151l-17.9385 13.721-.0057-.0227s-3.0807 2.3588-6.1301 2.4355c0 0-6.133.7787-5.5504-5.5532 0 0 1.6995 5.4566 9.2734.8867l.0085-.0398z"/>
    <path d="m46.5183 49.6547h3.7656l1.0658-5.4282c.3126-1.7421.3751-2.1542.5485-3.8793.2501 1.9013.3297 2.3901.6877 4.2914l1.0061 5.0161h3.7486l2.7567-13.8376h-3.4019l-1.097 6.1358c-.2501 1.5489-.3126 1.9809-.4717 3.5099-.1393-1.4892-.1876-1.9041-.5144-3.6264l-1.2079-6.0193h-2.967l-1.1425 6.0193c-.3154 1.6853-.3609 2.0974-.5485 3.6463-.125-1.529-.1904-1.9411-.4859-3.6264l-1.0828-6.0392h-3.4189z"/>
    <path d="m73.8267 49.6546h3.5126v-4.8797h1.0345l2.1514 4.8797h3.8878l-2.697-5.5845c.5172-.2558.989-.4718 1.4266-1.0572.8015-1.0203.8469-2.2565.8469-2.7852 0-1.3328-.4405-3.2142-1.9126-3.9986-.6764-.3524-1.6768-.432-2.7283-.432h-5.5219zm4.9564-10.9558c.611 0 1.7108.0398 1.7108 1.6284 0 1.5659-1.114 1.6057-1.6938 1.6057h-1.4608v-3.2341z"/>
    <path d="m97.4749 49.6547h9.2361v-2.9983h-5.723v-2.7425h4.91v-2.9983h-4.91v-2.0604h5.254v-3.0381h-8.7671z"/>
    <path d="m118.46 39.2302h2.805v10.4244h3.496v-10.4244h2.807v-3.4331h-9.108z"/>
    <path d="m128.361 49.6547h9.237v-2.9983h-5.724v-2.7425h4.908v-2.9983h-4.908v-2.0604h5.252v-3.0381h-8.765z"/>
    <path d="m139.417 49.6546h3.512v-4.8797h1.035l2.148 4.8797h3.888l-2.697-5.5845c.517-.2558.989-.4718 1.427-1.0572.801-1.0203.847-2.2565.847-2.7852 0-1.3328-.438-3.2142-1.913-3.9986-.674-.3524-1.677-.432-2.728-.432h-5.519zm4.953-10.9558c.614 0 1.711.0398 1.711 1.6284 0 1.5659-1.114 1.6057-1.694 1.6057h-1.458v-3.2341z"/>
    <path d="m93.7546 40.3445c-.5713-.9919-1.5006-1.637-2.5464-1.637-1.7365 0-3.1433 1.7677-3.1433 3.9503 0 2.1798 1.4068 3.9475 3.1433 3.9475 1.0174 0 1.8984-.6224 2.4725-1.5688l2.7141 1.7507c-1.1397 1.8814-3.0381 3.1091-5.1866 3.1091-3.4871 0-6.3149-3.2398-6.3149-7.2385 0-3.9986 2.8278-7.2413 6.3149-7.2413 0 0 2.9926-.4036 4.9734 3.2171z"/>
    <path d="m107.41 47.3696c.52.7645 1.154 1.546 2.765 2.248.87.378 1.805.4121 2.666.4121.637 0 2.947 0 4.394-1.7848.52-.6451 1.125-1.6682 1.023-3.1176-.23-3.3081-3.194-3.6036-5.749-4.1322-.992-.216-1.274-.6537-1.274-1.3215 0-.7048.808-1.3073 1.427-1.3073.586 0 1.484.0653 2.151.4547.504.3154.646.5087.825.7844l2.017-2.0889c-.406-.5115-.437-.6679-1.301-1.1794-.944-.5684-2.015-1.0146-3.334-1.0146-2.063 0-4.084.8526-4.834 2.8931-.21.5485-.324 1.1766-.324 1.7848 0 2.9187 2.151 3.6576 3.209 3.9901.469.1364 2.597.5201 3.004.6963.633.2558.625 1.1908.611 1.2874-.151.9407-1.419 1.0345-1.711 1.0345-.554 0-1.14-.1194-1.612-.3126-.994-.3951-1.438-.9322-1.861-1.4466z"/>
    <path d="m66.3666 38.7643c.3808 0 2.0121.0597 2.6573 1.978.1904.5513.2472 1.1567.2472 1.8217 0 2.6061-1.1936 3.9958-2.9045 3.9958-2.0093 0-2.9585-1.4494-2.9585-3.8566 0-2.8618 1.4409-3.9389 2.9585-3.9389zm.0114-3.453c-4.1464 0-6.1756 3.453-6.1756 7.3749 0 3.1233 1.4124 7.2783 6.1102 7.2783 4.5017 0 6.2097-3.9617 6.2097-7.4346 0-3.2598-1.6085-7.2186-6.1443-7.2186z"/>
  </g>
</svg>