<?xml version="1.0" encoding="utf-8"?>
<svg xmlns="http://www.w3.org/2000/svg" width="163" height="80" viewBox="0 0 163 80" fill="none">
<path d="M116.086 65.436C115.521 60.831 112.267 61.019 111.611 61.075V61.073L111.292 61.14C109.967 61.42 110.229 64.927 110.369 66.195C109.978 66.055 109.562 65.891 109.112 65.695C107.324 64.907 105.309 63.775 103.213 62.596C101.398 61.576 99.523 60.523 97.666 59.62C100.755 56.712 101.623 54.868 102.424 52.973C105.073 46.708 107.166 7.925 107.166 7.925C77.798 -5.406 53.937 7.925 53.937 7.925C53.937 7.925 56.426 46.554 58.678 52.973C59.164 54.357 60.122 56.362 63.648 59.67C61.721 60.593 59.771 61.69 57.889 62.748C55.793 63.926 53.779 65.058 51.99 65.845C51.547 66.039 51.137 66.202 50.752 66.34C50.882 65.237 51.231 61.42 49.846 61.129L49.528 61.062C49.511 61.06 49.48 61.052 49.475 61.055H49.449C49.436 61.055 49.428 61.052 49.418 61.052C48.763 60.996 45.588 60.966 45.026 65.586L45 65.592C45 65.592 45.005 65.617 45.016 65.655V65.685H45.025C45.033 65.714 45.045 65.747 45.059 65.786V65.793L45.064 65.798C45.069 65.812 46.898 71.13 48.917 72.245C49.278 72.443 50.167 72.521 51.045 72.501C51.972 72.481 52.91 72.351 53.232 72.148L53.245 72.138C59.765 67.181 64.597 64.652 68.082 63.416C68.218 63.523 68.357 63.63 68.497 63.736L66.867 65.836C66.8229 65.8442 66.7833 65.8683 66.7557 65.9036C66.728 65.939 66.7143 65.9832 66.717 66.028L66.7 66.049L66.722 66.075L67.363 72.478C67.365 72.528 67.388 72.58 67.43 72.614C67.463 72.641 78.433 82.034 93.38 73.242C93.4073 73.2279 93.4307 73.2071 93.4478 73.1816C93.4649 73.1561 93.4753 73.1266 93.478 73.096L94.148 66.746C94.148 66.736 94.148 66.728 94.146 66.718L94.208 66.658L94.134 66.532L92.551 63.845C92.781 63.673 93.004 63.504 93.222 63.335C96.692 64.596 101.464 67.124 107.859 71.985L107.872 71.995C108.272 72.249 109.135 72.388 109.998 72.407C110.876 72.425 111.768 72.323 112.186 72.092C114.206 70.978 116.035 65.662 116.04 65.645L116.043 65.64V65.633C116.091 65.515 116.104 65.441 116.104 65.439L116.087 65.435L116.086 65.436ZM111.647 61.266L111.66 61.28L111.634 61.273L111.632 61.263H111.647V61.266ZM111.66 61.283H111.656L111.635 61.278L111.66 61.283ZM55.798 9.305C55.798 9.305 77.988 -3.227 105.301 9.305C105.301 9.305 105.106 12.968 104.76 18.16C80.807 7.213 59.717 16.55 56.416 18.157C56.031 12.967 55.798 9.307 55.798 9.307V9.305ZM60.208 51.655C58.803 47.609 57.298 29.949 56.461 18.751C58.921 17.521 80.338 7.503 104.719 18.748C103.964 29.978 102.544 47.701 100.89 51.655C100.076 53.601 99.189 55.49 95.612 58.69C93.46 57.793 91.375 57.205 89.489 57.226C89.78 57.175 89.929 57.101 89.929 57.101C89.929 57.101 89.536 56.807 89.487 56.561C89.437 56.316 89.487 56.118 89.487 56.118C89.487 56.118 89.684 56.315 89.83 55.873C89.977 55.431 89.731 54.646 89.731 54.646C89.731 54.646 90.025 54.696 90.468 54.646C90.909 54.596 90.86 54.989 91.35 54.94C91.841 54.89 92.576 55.185 92.38 54.695C92.25 54.367 91.988 54.171 91.595 54.105C91.008 54.008 91.254 53.712 91.449 53.515C91.644 53.32 91.057 53.172 91.254 52.877C91.449 52.583 91.989 52.435 92.479 52.287C92.969 52.141 93.705 51.502 93.411 51.453C93.117 51.403 92.774 51.55 92.431 51.55C92.089 51.55 92.725 51.206 93.216 50.961C93.706 50.717 94.54 49.635 94.343 49.44C94.147 49.244 93.753 49.783 93.166 49.882C92.578 49.98 92.186 49.785 92.186 49.785C92.186 49.785 93.362 49.686 93.754 48.901C94.147 48.115 94.294 46.937 94.294 46.937C94.294 46.937 94.097 47.379 93.655 47.624C93.215 47.869 92.675 48.014 92.675 48.014C92.675 48.014 93.263 47.624 93.263 46.838C93.263 46.053 93.509 44.678 93.066 45.071C92.626 45.464 92.674 46.151 91.989 46.347C91.301 46.544 91.106 46.544 91.009 45.956C90.911 45.366 90.862 44.924 90.322 45.121C89.782 45.318 89.195 45.563 88.802 45.709C88.409 45.857 88.604 45.318 88.604 44.827C88.604 44.335 88.801 43.844 88.801 43.844C88.801 43.844 90.419 44.679 91.4 44.679C92.38 44.679 94.636 44.432 95.617 42.275C96.598 40.114 96.402 39.182 96.352 38.885C96.3454 38.8523 96.336 38.8201 96.324 38.789C96.228 38.549 95.959 38.396 95.959 38.396C95.959 38.396 95.959 38.562 95.927 38.789C95.891 39.04 95.817 39.366 95.665 39.624C95.37 40.114 95.076 40.36 95.076 40.36L94.313 38.789L93.313 36.726C93.313 36.726 94 35.4 93.949 34.567C93.899 33.732 93.705 32.26 93.459 32.015C93.212 31.77 93.017 31.721 93.017 31.721C93.017 31.721 93.459 32.654 93.165 33.685C92.871 34.715 92.43 35.355 92.43 35.355C92.43 35.355 91.546 34.618 91.4 33.685C91.254 32.753 90.712 31.77 91.595 30.74C92.479 29.71 93.508 29.218 94.243 28.727C94.978 28.235 95.174 26.911 94.93 26.222C94.686 25.535 94.146 24.602 94.146 24.602C94.146 24.602 94.636 26.123 94.096 26.762C93.7619 27.1481 93.3171 27.4221 92.822 27.547C92.822 27.547 93.606 26.123 93.411 25.19C93.214 24.257 92.676 22.54 93.166 21.9C93.657 21.262 94.098 20.771 94.49 20.722C94.882 20.672 95.127 20.526 95.127 20.526C95.127 20.526 94.392 20.134 93.754 20.331C93.117 20.526 91.451 21.067 91.155 22.147C90.862 23.227 90.958 23.767 90.958 24.405V25.68C90.958 25.68 90.665 25.287 90.224 24.894C89.782 24.502 88.801 24.109 88.801 24.109C88.801 24.109 89.538 25.042 89.782 25.779C90.027 26.515 90.125 27.889 89.83 29.803C89.536 31.718 89.193 32.994 90.419 35.253C91.644 37.51 92.233 38.197 91.792 38.197C91.35 38.197 90.517 38.099 90.027 37.412C89.537 36.725 89.242 35.841 89.046 35.939C88.85 36.038 88.703 37.118 89.438 37.953C89.7029 38.2495 89.9872 38.5281 90.289 38.787C90.981 39.384 91.809 39.929 92.479 40.063C93.459 40.26 94.097 41.929 93.411 42.567C92.725 43.205 91.303 43.254 89.831 42.273C88.644 41.479 87.774 40.205 87.046 38.787C86.872 38.45 86.706 38.105 86.547 37.757C85.714 35.939 85.028 34.368 84.585 34.517C84.144 34.664 84.193 35.645 83.899 36.332C83.604 37.019 83.212 37.362 82.772 37.757C82.331 38.15 81.841 38.444 81.841 38.444C81.841 38.444 81.957 38.58 82.126 38.787C82.336 39.045 82.626 39.415 82.871 39.77C83.312 40.408 83.655 41.045 83.411 41.88C83.164 42.715 81.888 45.12 81.888 45.855C81.888 46.592 82.085 47.671 82.085 48.459C82.085 49.246 82.182 50.129 81.644 50.717C81.104 51.305 80.517 52.041 80.615 52.728C80.714 53.415 80.909 53.563 80.909 53.563C80.909 53.563 81.106 52.925 81.644 52.58C82.184 52.237 82.871 51.943 82.871 51.943C82.871 51.943 82.969 52.09 82.772 52.531C82.575 52.973 82.429 53.611 82.429 53.611C82.429 53.611 83.263 53.364 83.85 52.581C84.44 51.795 84.734 51.157 84.734 50.666C84.734 50.174 84.979 49.781 84.979 49.781C84.979 49.781 85.469 50.468 86.695 49.929C87.92 49.389 88.46 49.045 88.46 49.045C88.46 49.045 89.343 50.026 89.197 50.715C89.049 51.402 88.706 51.942 88.119 52.285C87.529 52.629 87.089 52.629 86.893 52.237C86.696 51.844 86.499 51.5 85.913 52.039C85.323 52.58 84.931 52.629 84.736 52.776C84.539 52.923 84.442 52.924 84.442 53.218C84.442 53.512 84.59 53.758 84.59 53.758C84.59 53.758 85.226 53.267 85.52 53.464C85.816 53.661 85.865 54.2 85.865 54.2C85.865 54.2 85.227 54.496 85.275 54.887C85.325 55.28 85.52 55.428 85.52 55.428C85.52 55.428 85.031 55.673 85.031 56.066C85.031 56.458 84.834 57.195 85.325 56.997C85.815 56.802 86.06 56.066 86.06 56.066C86.06 56.066 86.55 56.458 86.893 56.261C87.236 56.066 87.088 55.377 87.53 55.624C87.971 55.87 87.922 56.458 88.216 56.36C88.509 56.261 88.706 56.508 88.756 56.802C88.791 57.02 88.883 57.185 89.088 57.236C88.6853 57.2585 88.2852 57.3151 87.892 57.405L87.797 57.459C87.197 58.11 86.649 58.892 86.183 59.724C85.703 60.582 85.305 61.492 85.025 62.366L84.902 62.444L85.036 62.606L87.153 65.165C86.189 65.832 85.153 66.535 84.037 67.28C82.931 68.079 80.957 69.167 80.553 69.226C80.553 69.226 79.196 68.478 77.068 67.28C75.948 66.532 74.905 65.82 73.93 65.139L75.86 62.776L76.102 62.583C76.102 62.583 75.172 59.635 73.31 57.613L73.215 57.558C71.002 57.047 68.41 57.648 65.705 58.751C61.705 55.157 60.701 53.061 60.212 51.651L60.208 51.655ZM49.352 61.298L49.365 61.285H49.379L49.377 61.292L49.352 61.298ZM49.375 61.293L49.355 61.3H49.352L49.375 61.293ZM49.354 61.415C49.365 61.417 49.446 61.413 49.484 61.431L49.518 61.492C49.898 62.622 49.677 63.237 49.333 63.574C48.955 63.857 48.507 63.874 48.504 63.874C48.504 63.874 47.743 63.89 47.424 64.23C47.049 64.485 46.941 64.994 48.076 66.016L48.083 66.01C48.376 66.177 48.607 66.353 48.783 66.514C48.865 66.59 48.935 66.662 48.996 66.728C48.53 66.836 47.61 66.988 46.775 66.736C46.229 66.573 45.717 66.233 45.4 65.586C45.927 61.389 48.732 61.364 49.359 61.411L49.354 61.415ZM53.034 71.834C52.768 72.003 51.907 72.112 51.037 72.131C50.212 72.149 49.397 72.087 49.093 71.919C47.746 71.179 46.457 68.349 45.822 66.766C46.463 67.229 47.587 67.553 49.539 67.088L49.579 67.08C49.6853 67.0576 49.7905 67.0299 49.894 66.997C50.55 66.818 51.293 66.555 52.136 66.184C53.949 65.387 55.966 64.251 58.068 63.07C63.226 60.17 68.895 56.981 73.074 57.908C74.417 59.387 75.252 61.354 75.584 62.236C73.438 61.274 69.417 62.616 69.406 62.621L69.388 62.634C65.768 63.668 60.473 66.182 53.035 71.835L53.034 71.834ZM76.803 69.597C78.22 70.386 79.317 70.991 79.949 71.337C76.178 71.282 73.109 70.088 70.913 68.831L72.613 66.751C73.9956 67.7202 75.3925 68.6689 76.803 69.597ZM93.119 72.964C79.032 81.203 68.574 73.071 67.721 72.376L67.138 66.559C67.558 66.983 68.116 67.412 68.661 67.789C72.426 70.613 81.551 75.309 93.737 67.098L93.119 72.964ZM90.149 68.792C86.974 70.401 84.052 71.132 81.43 71.3C82.277 70.877 83.5 70.167 84.298 69.597C85.7032 68.6728 87.0973 67.7317 88.48 66.774L90.15 68.794L90.149 68.792ZM112.006 71.766C111.643 71.966 110.823 72.056 110.003 72.037C109.199 72.019 108.41 71.899 108.067 71.681C100.616 66.018 95.316 63.505 91.697 62.475L91.68 62.462C91.667 62.458 87.676 61.237 85.497 62.125C85.76 61.384 86.101 60.626 86.504 59.908C86.947 59.119 87.464 58.376 88.028 57.755C92.207 56.828 97.876 60.016 103.034 62.917C105.136 64.098 107.153 65.234 108.966 66.031C109.488 66.261 109.97 66.448 110.42 66.601L110.426 66.651L110.513 66.637C110.639 66.739 110.976 66.971 111.558 67.089L111.702 67.119L111.745 67.024C112.137 67.13 113.295 67.39 114.347 67.074C114.552 67.014 114.754 66.927 114.944 66.817C115.069 66.754 115.18 66.685 115.279 66.613C114.642 68.195 113.353 71.025 112.006 71.766ZM114.69 66.536C114.14 66.786 113.308 66.91 112.058 66.669C112.109 66.614 112.165 66.557 112.231 66.498C112.405 66.338 112.634 66.162 112.931 65.995L112.936 66.001C113.63 65.377 113.86 64.943 113.848 64.642C113.909 63.912 112.638 63.886 112.633 63.886C112.633 63.886 111.269 63.837 111.301 62.409C111.315 62.145 111.374 61.837 111.496 61.476L111.51 61.467C111.539 61.4703 111.568 61.4656 111.595 61.4535C111.622 61.4413 111.644 61.4221 111.661 61.398C112.293 61.351 115.092 61.38 115.618 65.573C115.421 65.9852 115.097 66.3232 114.693 66.537L114.69 66.536Z" fill="#969EA6"/>
<path d="M81.095 73.704L81.135 73.731L81.343 73.712L81.375 73.678C81.387 73.369 81.402 73.19 81.421 73.144C81.4275 73.1236 81.4382 73.1047 81.4523 73.0885C81.4664 73.0723 81.4836 73.0592 81.503 73.05C81.553 73.03 81.674 73.01 81.868 72.986L82.465 72.912L83.309 72.82L83.339 72.868L83.077 73.415C83.024 73.527 82.947 73.673 82.847 73.85L81.631 76.063L81.672 76.12C81.812 76.095 81.94 76.077 82.058 76.064C82.179 76.051 82.289 76.043 82.389 76.043L82.44 76.007C82.566 75.602 82.745 75.111 82.98 74.529C83.239 73.887 83.583 73.149 84.015 72.311L83.99 72.084L83.951 72.062C83.681 72.102 83.218 72.158 82.557 72.23C82.05 72.284 81.528 72.332 80.993 72.37L80.953 72.404C80.993 72.659 81.026 72.896 81.051 73.114C81.071 73.302 81.085 73.499 81.093 73.704H81.095ZM77.107 73.12C77.192 72.774 77.248 72.56 77.273 72.484C77.337 72.278 77.383 72.12 77.417 72.017L77.358 71.961C76.559 72.028 75.842 72.064 75.208 72.068L75.199 72.089C75.202 72.222 75.199 72.342 75.191 72.451L75.225 72.479C75.458 72.441 75.739 72.399 76.064 72.352C76.184 72.334 76.252 72.329 76.272 72.334C76.318 72.344 76.331 72.394 76.31 72.485L76.27 72.691C76.208 73.004 76.156 73.263 76.11 73.463L75.957 74.138C75.821 74.741 75.722 75.08 75.662 75.158C75.624 75.203 75.585 75.23 75.544 75.236C75.4188 75.2364 75.2938 75.2243 75.171 75.2C75.0612 75.1826 74.9512 75.1666 74.841 75.152L74.796 75.17L74.758 75.336L74.788 75.374C75.268 75.466 75.722 75.562 76.152 75.66C76.595 75.76 76.966 75.854 77.268 75.938L77.31 75.913L77.348 75.747L77.312 75.711C76.982 75.621 76.782 75.558 76.707 75.522C76.6869 75.5133 76.6692 75.5 76.6553 75.4831C76.6414 75.4663 76.6317 75.4464 76.627 75.425C76.608 75.363 76.685 74.949 76.859 74.185L77.109 73.121L77.107 73.12ZM78.784 72.426C78.302 72.611 78.054 72.92 78.041 73.353C78.03 73.733 78.246 74.038 78.689 74.261C78.442 74.363 78.283 74.442 78.209 74.496C78.1024 74.5733 78.0153 74.6746 77.9549 74.7916C77.8945 74.9087 77.8623 75.0383 77.861 75.17C77.854 75.4 77.908 75.586 78.025 75.732C78.287 76.056 78.67 76.225 79.177 76.242C79.414 76.25 79.617 76.232 79.783 76.187C80.19 76.084 80.489 75.875 80.678 75.563C80.776 75.4 80.828 75.208 80.837 74.993C80.843 74.753 80.791 74.559 80.677 74.408C80.551 74.243 80.335 74.1 80.025 73.98C80.459 73.785 80.681 73.52 80.691 73.188C80.6957 73.0703 80.6709 72.9532 80.6191 72.8475C80.5673 72.7417 80.4899 72.6504 80.394 72.582C80.176 72.416 79.875 72.327 79.491 72.316C79.2511 72.3042 79.0113 72.3409 78.786 72.424L78.784 72.426ZM80.077 75.29C80.0765 75.3816 80.0563 75.4721 80.0178 75.5552C79.9794 75.6384 79.9235 75.7123 79.854 75.772C79.7006 75.8986 79.5043 75.9609 79.306 75.946C78.988 75.936 78.746 75.806 78.579 75.555C78.4992 75.4253 78.4625 75.2738 78.474 75.122C78.484 74.818 78.652 74.57 78.974 74.378L79.065 74.411C79.278 74.49 79.477 74.577 79.664 74.672C79.948 74.817 80.087 75.021 80.079 75.288L80.077 75.29ZM80.117 73.25C80.108 73.528 79.966 73.736 79.692 73.872L79.512 73.802C79.408 73.758 79.331 73.724 79.28 73.701C79.1617 73.6533 79.0507 73.5893 78.95 73.511C78.81 73.391 78.743 73.261 78.747 73.119C78.7483 73.0509 78.7646 72.9839 78.7949 72.9229C78.8251 72.8618 78.8686 72.8083 78.922 72.766C79.044 72.666 79.206 72.62 79.408 72.624C79.633 72.631 79.808 72.692 79.936 72.807C79.9981 72.8623 80.0468 72.931 80.0784 73.0079C80.1099 73.0849 80.1235 73.168 80.118 73.251L80.117 73.25ZM84.984 75.318C85.305 75.515 85.686 75.554 86.127 75.433C86.439 75.347 86.68 75.216 86.856 75.04C87.226 74.664 87.343 74.218 87.203 73.702C87.113 73.372 86.944 73.139 86.698 73.007C86.4633 72.8847 86.1899 72.8599 85.937 72.938C85.753 72.988 85.599 73.056 85.473 73.142C85.42 73.178 85.279 73.346 85.051 73.65C84.989 73.229 84.995 72.886 85.069 72.614C85.1105 72.4612 85.1781 72.3167 85.269 72.187C85.466 71.916 85.729 71.737 86.062 71.645C86.131 71.627 86.206 71.61 86.286 71.6L86.362 71.482L86.058 71.377C85.6321 71.4867 85.2413 71.7036 84.923 72.007C84.623 72.296 84.408 72.634 84.28 73.024C84.159 73.392 84.162 73.811 84.29 74.282C84.423 74.771 84.654 75.116 84.98 75.314L84.984 75.318ZM85.176 73.96C85.21 73.753 85.356 73.614 85.614 73.543C85.7024 73.5149 85.796 73.5078 85.8876 73.522C85.9792 73.5362 86.0663 73.5715 86.142 73.625C86.308 73.74 86.427 73.934 86.502 74.212C86.641 74.718 86.518 75.024 86.132 75.129C85.9922 75.1714 85.8415 75.1585 85.711 75.093C85.487 74.979 85.321 74.725 85.215 74.332C85.1768 74.2116 85.1632 74.0848 85.175 73.959L85.176 73.96ZM70.304 58.769C70.452 58.766 70.535 58.766 70.558 58.769C70.5774 58.7715 70.5955 58.78 70.6098 58.7932C70.6242 58.8065 70.634 58.8239 70.638 58.843C70.666 58.945 70.694 59.167 70.726 59.51L70.821 60.606L70.857 61.091C70.87 61.257 70.87 61.354 70.857 61.381C70.85 61.398 70.797 61.446 70.697 61.523L70.687 61.549L70.691 61.61L70.716 61.63C70.822 61.612 71.006 61.59 71.269 61.57L72.839 61.444L72.859 61.42C72.8364 61.1814 72.8314 60.9414 72.844 60.702L72.819 60.683L72.688 60.695L72.668 60.719L72.64 60.992C72.6379 61.0381 72.6277 61.0834 72.61 61.126C72.6019 61.1377 72.5909 61.147 72.578 61.153C72.486 61.194 72.23 61.233 71.81 61.27L71.518 61.295C71.4941 61.1131 71.4741 60.9307 71.458 60.748L71.346 59.456C71.316 59.112 71.306 58.889 71.316 58.784C71.3164 58.7644 71.323 58.7454 71.3349 58.7298C71.3467 58.7142 71.3632 58.7027 71.382 58.697C71.4647 58.6791 71.5481 58.6647 71.632 58.654L71.652 58.632L71.639 58.482L71.616 58.465C71.464 58.488 71.239 58.511 70.942 58.537C70.655 58.562 70.439 58.577 70.289 58.581L70.269 58.603L70.283 58.751L70.306 58.769H70.304ZM62.807 62.616C62.897 62.544 62.977 62.47 63.047 62.395C63.11 62.3254 63.1607 62.2456 63.197 62.159C63.2629 62.0154 63.2748 61.8528 63.2303 61.7012C63.1858 61.5496 63.0881 61.4192 62.955 61.334C62.761 61.224 62.484 61.259 62.121 61.434L61.836 61.584C61.695 61.662 61.536 61.744 61.356 61.831C61.1583 61.93 60.9579 62.0234 60.755 62.111L60.745 62.138L60.809 62.271L60.837 62.281C60.973 62.225 61.052 62.194 61.075 62.189C61.117 62.181 61.15 62.196 61.177 62.229C61.239 62.314 61.346 62.511 61.497 62.82L61.977 63.808L62.184 64.248C62.254 64.398 62.289 64.488 62.289 64.518C62.289 64.538 62.254 64.602 62.189 64.708V64.736L62.217 64.79L62.247 64.8C62.37 64.7279 62.4962 64.6612 62.625 64.6L63.095 64.383C63.147 64.36 63.212 64.329 63.289 64.291C63.534 64.171 63.713 64.028 63.826 63.864C64.054 63.53 64.088 63.2 63.929 62.874C63.729 62.462 63.355 62.374 62.809 62.614L62.807 62.616ZM62.185 62.822L61.923 62.284C61.862 62.1573 61.803 62.0296 61.746 61.901C61.81 61.859 61.89 61.811 61.99 61.763C62.289 61.617 62.509 61.688 62.648 61.973C62.696 62.074 62.72 62.176 62.72 62.284C62.72 62.472 62.602 62.623 62.368 62.736C62.278 62.781 62.218 62.809 62.188 62.82L62.185 62.822ZM63.444 63.749C63.401 63.911 63.288 64.038 63.107 64.125C63.0328 64.1629 62.9559 64.1954 62.877 64.222C62.827 64.13 62.777 64.036 62.73 63.939L62.29 63.035C62.3477 63.0038 62.4057 62.9731 62.464 62.943C62.873 62.745 63.173 62.84 63.364 63.229C63.457 63.422 63.483 63.594 63.444 63.749ZM67.61 62.247C67.546 62.2739 67.4782 62.2908 67.409 62.297C67.371 62.297 67.312 62.258 67.234 62.177L65.194 60.065L64.907 60.175V60.707L64.886 62.232C64.878 62.827 64.866 63.154 64.853 63.213C64.84 63.273 64.766 63.333 64.63 63.393L64.615 63.423L64.666 63.555L64.692 63.566C64.907 63.474 65.043 63.416 65.099 63.396C65.169 63.368 65.332 63.312 65.585 63.223L65.596 63.193L65.547 63.065L65.519 63.052C65.4492 63.076 65.3785 63.097 65.307 63.115C65.24 63.129 65.197 63.111 65.177 63.06C65.16 63.013 65.148 62.883 65.145 62.67L65.14 62.388C65.347 62.304 65.503 62.244 65.606 62.204C65.801 62.129 65.99 62.058 66.179 61.989L66.507 62.354C66.5574 62.4045 66.6011 62.4613 66.637 62.523C66.654 62.571 66.628 62.612 66.556 62.644L66.384 62.722L66.372 62.753L66.42 62.88L66.446 62.893C66.656 62.803 66.886 62.71 67.133 62.615C67.196 62.592 67.378 62.526 67.68 62.419L67.69 62.392L67.64 62.262L67.614 62.247H67.61ZM65.573 61.961C65.4296 62.0167 65.2852 62.0701 65.14 62.121L65.148 60.899L65.988 61.795C65.883 61.839 65.746 61.895 65.575 61.961H65.573ZM57.316 64.546C56.936 64.492 56.538 64.607 56.126 64.896C55.836 65.098 55.628 65.319 55.5 65.556C55.22 66.081 55.279 66.626 55.676 67.197C55.959 67.603 56.297 67.839 56.686 67.905C57.076 67.971 57.474 67.862 57.877 67.578C58.305 67.278 58.558 66.921 58.637 66.505C58.717 66.078 58.604 65.645 58.299 65.209C58.029 64.822 57.7 64.6 57.315 64.543L57.316 64.546ZM57.813 67.323C57.536 67.517 57.25 67.555 56.957 67.433C56.673 67.317 56.404 67.075 56.148 66.709C56.0148 66.5253 55.9153 66.3194 55.854 66.101C55.748 65.703 55.871 65.383 56.222 65.136C56.488 64.951 56.76 64.909 57.039 65.015C57.318 65.12 57.577 65.345 57.819 65.688C57.972 65.908 58.081 66.128 58.143 66.348C58.259 66.761 58.15 67.087 57.813 67.323ZM70.197 61.746C70.1371 61.5142 70.0946 61.2782 70.07 61.04L70.043 61.025L69.914 61.058L69.9 61.086L69.914 61.36C69.919 61.4051 69.9163 61.4508 69.906 61.495C69.8997 61.5082 69.89 61.5196 69.878 61.528C69.795 61.584 69.548 61.661 69.138 61.763L68.853 61.835C68.803 61.665 68.755 61.487 68.71 61.305L68.397 60.045C68.3366 59.8292 68.2918 59.6093 68.263 59.387C68.259 59.344 68.277 59.313 68.315 59.29C68.335 59.28 68.415 59.252 68.556 59.208L68.573 59.183L68.537 59.038L68.51 59.023C68.363 59.069 68.144 59.129 67.856 59.201C67.576 59.271 67.364 59.319 67.218 59.347L67.201 59.372L67.237 59.515L67.263 59.531C67.408 59.505 67.491 59.491 67.514 59.491C67.557 59.491 67.587 59.511 67.604 59.551C67.649 59.646 67.711 59.861 67.795 60.195L68.061 61.263L68.171 61.737C68.208 61.899 68.225 61.995 68.218 62.023C68.215 62.043 68.168 62.096 68.08 62.189L68.076 62.217L68.09 62.276L68.117 62.292C68.218 62.258 68.399 62.208 68.653 62.144L70.183 61.776L70.2 61.75L70.197 61.746ZM52.257 68.956L52.229 68.943L52.102 68.991L52.089 69.019C52.142 69.167 52.163 69.26 52.155 69.299C52.15 69.323 52.13 69.342 52.095 69.357C51.911 69.437 51.785 69.489 51.715 69.513L51.485 69.595L51.379 69.323C51.2814 69.0767 51.194 68.8265 51.117 68.573C51.233 68.519 51.318 68.483 51.373 68.462C51.717 68.329 51.913 68.278 51.961 68.307C51.989 68.325 52.041 68.425 52.112 68.607L52.14 68.617L52.257 68.572L52.268 68.542L52.219 68.376C52.1972 68.3065 52.1772 68.2365 52.159 68.166L52.098 67.924L52.071 67.916C51.35 68.202 50.898 68.381 50.713 68.453C50.428 68.562 50.218 68.639 50.086 68.68L50.073 68.706L50.126 68.844L50.154 68.856C50.294 68.812 50.375 68.789 50.398 68.786C50.441 68.782 50.473 68.796 50.495 68.835C50.551 68.925 50.639 69.132 50.762 69.453L51.172 70.524C51.295 70.843 51.366 71.056 51.386 71.162C51.3905 71.1808 51.3891 71.2005 51.3819 71.2184C51.3748 71.2363 51.3622 71.2515 51.346 71.262C51.2722 71.3037 51.1961 71.3411 51.118 71.374L51.105 71.402L51.158 71.54L51.185 71.551C51.387 71.462 51.545 71.397 51.661 71.354L52.478 71.054L52.493 71.024L52.44 70.889L52.413 70.876C52.226 70.935 52.126 70.966 52.116 70.966C52.0968 70.9693 52.0771 70.9664 52.0597 70.9578C52.0423 70.9491 52.028 70.9352 52.019 70.918C51.963 70.826 51.874 70.621 51.752 70.3L51.566 69.819C51.7225 69.7463 51.8843 69.6854 52.05 69.637C52.17 69.6 52.25 69.602 52.291 69.642C52.313 69.662 52.351 69.742 52.404 69.883L52.432 69.896L52.567 69.844L52.58 69.817C52.4601 69.5332 52.35 69.2454 52.25 68.954L52.257 68.956ZM54.401 66.787C54.021 66.724 53.622 66.834 53.205 67.117C52.914 67.314 52.702 67.531 52.569 67.766C52.279 68.286 52.328 68.834 52.717 69.409C52.994 69.82 53.327 70.062 53.716 70.136C54.105 70.21 54.503 70.108 54.912 69.83C55.345 69.537 55.604 69.184 55.689 68.77C55.778 68.344 55.673 67.91 55.374 67.469C55.112 67.077 54.787 66.851 54.401 66.787ZM54.849 69.572C54.569 69.762 54.282 69.794 53.991 69.667C53.711 69.546 53.445 69.299 53.196 68.927C53.0666 68.7412 52.9712 68.534 52.914 68.315C52.815 67.917 52.944 67.597 53.299 67.357C53.569 67.176 53.84 67.138 54.118 67.248C54.395 67.358 54.651 67.588 54.884 67.935C55.034 68.159 55.138 68.38 55.197 68.601C55.307 69.016 55.19 69.342 54.849 69.572ZM61.16 65.217C61.0855 65.2569 61.0087 65.2923 60.93 65.323C60.9115 65.3293 60.8915 65.3295 60.8728 65.3238C60.8542 65.3181 60.8378 65.3066 60.826 65.291C60.694 65.1101 60.5741 64.9207 60.467 64.724L59.852 63.655C59.676 63.351 59.578 63.175 59.555 63.131L59.805 62.986C60.015 62.865 60.134 62.799 60.162 62.788C60.232 62.758 60.29 62.765 60.332 62.806C60.355 62.829 60.416 62.919 60.515 63.076L60.545 63.08L60.664 63.011L60.672 62.981L60.495 62.666C60.44 62.5692 60.3929 62.4683 60.354 62.364L60.324 62.356C60.221 62.433 59.957 62.594 59.529 62.84L58.769 63.28C58.307 63.549 58.034 63.698 57.952 63.728L57.947 63.758C58.017 63.844 58.078 63.935 58.131 64.023L58.32 64.343L58.35 64.35L58.469 64.281L58.477 64.251C58.4397 64.1819 58.4063 64.1108 58.377 64.038C58.3558 63.9954 58.3423 63.9493 58.337 63.902C58.337 63.887 58.346 63.869 58.361 63.849C58.391 63.813 58.517 63.731 58.74 63.603L59.007 63.447C59.033 63.484 59.135 63.657 59.314 63.966L59.929 65.032C60.101 65.33 60.205 65.529 60.241 65.629C60.2486 65.6472 60.2502 65.6673 60.2458 65.6865C60.2413 65.7057 60.2309 65.723 60.216 65.736C60.1492 65.7882 60.0798 65.8369 60.008 65.882L59.999 65.912L60.073 66.04L60.101 66.046C60.214 65.971 60.405 65.856 60.672 65.701C60.933 65.551 61.128 65.441 61.256 65.379L61.264 65.349L61.192 65.223L61.162 65.217H61.16ZM105.533 65.505C105.447 65.4403 105.359 65.3783 105.269 65.319C105.136 65.229 104.99 65.125 104.83 65.005C104.651 64.8757 104.476 64.7406 104.306 64.6L104.277 64.603L104.19 64.721L104.195 64.751C104.308 64.846 104.37 64.902 104.385 64.918C104.411 64.955 104.415 64.989 104.397 65.027C104.351 65.122 104.224 65.307 104.019 65.584L103.365 66.466L103.069 66.853C102.969 66.984 102.905 67.058 102.879 67.07C102.808 67.0795 102.735 67.0795 102.664 67.07L102.64 67.083L102.604 67.132L102.608 67.163C102.694 67.216 102.813 67.298 102.961 67.41L103.37 67.727C103.414 67.763 103.471 67.806 103.54 67.857C103.758 68.019 103.968 68.113 104.165 68.137C104.566 68.187 104.874 68.065 105.089 67.775C105.361 67.406 105.268 67.033 104.805 66.659C104.91 66.705 105.013 66.743 105.112 66.77C105.202 66.7954 105.296 66.8039 105.389 66.795C105.487 66.7909 105.583 66.7645 105.67 66.7177C105.756 66.6709 105.831 66.605 105.888 66.525C105.96 66.4308 106.001 66.3172 106.008 66.199C106.016 65.977 105.858 65.744 105.533 65.505ZM104.516 67.435C104.388 67.607 104.247 67.71 104.095 67.747C103.931 67.783 103.767 67.742 103.604 67.62C103.536 67.5713 103.472 67.5179 103.412 67.46C103.471 67.3713 103.533 67.2839 103.596 67.198L104.193 66.391C104.254 66.432 104.308 66.47 104.356 66.504C104.721 66.775 104.774 67.087 104.516 67.435ZM105.299 66.222C105.235 66.3091 105.152 66.38 105.056 66.429C104.89 66.514 104.702 66.478 104.493 66.323C104.413 66.263 104.36 66.223 104.336 66.2L104.692 65.72C104.769 65.617 104.854 65.505 104.949 65.387C105.018 65.423 105.095 65.474 105.184 65.54C105.45 65.738 105.489 65.965 105.299 66.222ZM103.217 64.658C103.31 64.517 103.374 64.428 103.41 64.39C103.476 64.324 103.582 64.336 103.727 64.425L103.756 64.418L103.833 64.293L103.825 64.263C103.581 64.123 103.415 64.025 103.33 63.974C103.22 63.9058 103.112 63.8341 103.007 63.759L102.977 63.766L102.9 63.891L102.908 63.921C103.026 64.004 103.095 64.058 103.118 64.088C103.143 64.122 103.153 64.155 103.148 64.185C103.122 64.2665 103.084 64.3439 103.036 64.415C102.967 64.533 102.833 64.755 102.634 65.077L102.398 65.462C102.335 65.5642 102.267 65.6627 102.193 65.757C102.137 65.8362 102.07 65.9069 101.994 65.967C101.93 66.0089 101.858 66.0363 101.783 66.047C101.596 66.078 101.397 66.029 101.182 65.896C100.853 65.693 100.712 65.463 100.754 65.204C100.777 65.074 100.931 64.776 101.217 64.31L101.45 63.93C101.63 63.638 101.755 63.45 101.826 63.373C101.838 63.358 101.855 63.347 101.874 63.3415C101.892 63.3359 101.912 63.3361 101.931 63.342C101.952 63.348 102.027 63.386 102.159 63.457L102.188 63.45L102.264 63.325L102.257 63.295C102.14 63.235 101.95 63.122 101.684 62.957C101.424 62.797 101.237 62.677 101.123 62.596L101.094 62.602L101.017 62.727L101.025 62.757C101.145 62.841 101.214 62.892 101.23 62.907C101.26 62.941 101.266 62.975 101.25 63.017C101.212 63.115 101.102 63.311 100.923 63.603L100.63 64.08C100.352 64.532 100.195 64.82 100.159 64.946C100.102 65.1371 100.124 65.3428 100.219 65.518C100.334 65.736 100.552 65.945 100.876 66.144C101.228 66.361 101.563 66.424 101.881 66.336C102.121 66.269 102.354 66.052 102.578 65.686L102.928 65.115C103.051 64.913 103.148 64.76 103.218 64.655L103.217 64.658ZM96.107 60.848C96.379 60.723 96.676 60.731 96.996 60.873C97.309 61.009 97.507 61.206 97.591 61.466C97.575 61.532 97.532 61.646 97.467 61.809L97.477 61.839L97.594 61.889L97.621 61.879C97.7219 61.6661 97.8431 61.4635 97.983 61.274L97.97 61.233C97.7179 60.9832 97.4219 60.7818 97.097 60.639C96.586 60.416 96.127 60.373 95.715 60.509C95.315 60.643 95.019 60.925 94.829 61.361C94.7134 61.6203 94.662 61.9036 94.679 62.187C94.715 62.797 95.079 63.254 95.77 63.557C96.116 63.706 96.463 63.767 96.807 63.735L96.987 63.573L96.958 63.505C96.645 63.532 96.358 63.487 96.092 63.371C95.802 63.244 95.598 63.075 95.483 62.863C95.268 62.467 95.265 62.033 95.472 61.56C95.624 61.211 95.836 60.973 96.107 60.848ZM99.149 61.618C98.9551 61.5184 98.764 61.4134 98.576 61.303L98.547 61.311L98.48 61.441L98.49 61.471C98.616 61.548 98.686 61.592 98.705 61.607C98.735 61.637 98.745 61.671 98.732 61.712C98.702 61.812 98.606 62.016 98.445 62.322L97.937 63.296L97.707 63.723C97.628 63.87 97.576 63.952 97.553 63.968C97.4842 63.9887 97.4128 63.9998 97.341 64.001L97.32 64.019L97.292 64.073L97.302 64.103C97.402 64.146 97.568 64.228 97.8 64.35L99.19 65.09L99.22 65.082C99.3287 64.8691 99.4531 64.6646 99.592 64.47L99.581 64.438L99.464 64.378L99.434 64.389L99.264 64.604C99.2378 64.6416 99.2049 64.6742 99.167 64.7C99.156 64.706 99.142 64.708 99.127 64.706C99.026 64.691 98.788 64.586 98.416 64.391L98.155 64.254C98.23 64.094 98.312 63.929 98.399 63.761L98.999 62.611C99.159 62.305 99.27 62.111 99.336 62.028C99.3471 62.012 99.3628 61.9997 99.381 61.9929C99.3993 61.9861 99.4192 61.9851 99.438 61.99C99.459 61.995 99.538 62.028 99.672 62.088L99.7 62.082L99.77 61.95L99.76 61.922C99.5548 61.8266 99.352 61.7258 99.152 61.62L99.149 61.618ZM66.395 20.528L66.248 20.724L66.346 21.116C66.346 21.116 66.445 21.361 66.886 21.361C67.327 21.361 67.621 21.46 67.572 21.655C67.522 21.851 67.032 21.999 66.64 22.441C66.248 22.883 66.64 23.078 66.64 23.078C66.64 23.078 66.395 23.177 65.806 23.619C65.217 24.061 65.905 24.454 65.905 24.454C65.905 24.454 66.1 24.209 66.297 24.012C66.494 23.816 66.837 24.012 66.837 24.012L67.032 23.619C67.032 23.619 67.376 23.718 67.572 23.864C67.768 24.012 68.21 23.814 68.21 23.814L68.454 24.158C68.454 24.158 67.916 24.502 67.278 24.649C66.641 24.797 66.641 25.632 66.641 25.632C66.641 25.632 66.837 25.534 67.231 25.387C67.622 25.239 68.111 25.829 68.701 26.025C69.289 26.221 69.829 26.418 69.632 26.811C69.437 27.203 69.045 27.203 68.505 27.105C67.965 27.006 68.015 27.203 68.161 27.547C68.308 27.89 68.797 27.939 69.484 28.038C70.17 28.137 70.808 27.744 70.808 27.744C70.808 27.744 70.465 28.384 70.219 28.626C69.975 28.873 69.827 29.56 69.827 29.56C69.827 29.56 70.17 29.56 70.71 29.364C71.25 29.169 71.983 29.169 73.062 28.873C74.14 28.579 75.365 27.4 75.365 27.4C75.365 27.4 73.699 26.027 72.915 25.338C72.2011 24.7223 71.4649 24.1329 70.708 23.571C70.119 23.129 70.267 22.294 70.316 21.558C70.366 20.822 70.854 20.919 71.296 20.919C71.736 20.919 71.884 20.526 71.884 20.281C71.884 20.037 71.934 19.889 72.276 19.741C72.619 19.593 72.473 19.348 72.572 18.955C72.669 18.562 72.18 18.219 72.18 18.219C72.18 18.219 72.18 18.612 72.083 18.809C71.984 19.004 71.74 19.251 71.74 19.251C71.74 19.251 71.397 19.055 71.054 19.103C70.711 19.153 70.369 19.743 70.369 19.743C70.369 19.743 70.221 19.545 70.467 18.957C70.713 18.369 69.977 18.317 69.535 17.974C69.094 17.631 68.507 18.367 68.507 18.367V19.691L67.084 18.906L66.741 19.839C66.741 19.839 66.399 19.691 66.007 19.595C65.614 19.495 65.467 20.232 65.467 20.232H66.253C66.645 20.232 66.4 20.528 66.4 20.528H66.395ZM67.523 37.86V38.596C67.523 39.038 67.816 39.184 67.816 39.184L68.504 38.89C68.504 38.89 68.454 39.48 68.847 39.725C69.239 39.97 69.68 39.626 69.68 39.626C69.68 39.626 69.386 39.431 69.337 39.135C69.287 38.841 68.994 38.645 68.994 38.645C68.994 38.645 69.729 38.351 69.828 38.055C69.924 37.761 69.631 37.515 69.631 37.515L69.828 37.367C69.828 37.367 70.759 37.907 71.298 38.447C71.838 38.987 72.72 39.133 73.308 38.74C73.898 38.348 73.21 38.348 72.868 38.249C72.525 38.15 72.377 38.004 72.525 37.219C72.67 36.433 73.161 37.317 73.505 37.759C73.848 38.201 74.682 38.201 75.22 38.201C75.758 38.201 75.563 37.809 75.269 37.661C74.975 37.514 75.074 37.317 75.123 36.727C75.173 36.139 75.613 35.942 75.613 35.942C75.613 35.942 75.956 36.187 76.25 36.384C76.545 36.581 76.642 36.777 76.936 36.727C77.229 36.677 76.936 36.335 77.083 35.991C77.229 35.648 77.034 35.108 76.053 35.059C75.073 35.009 75.121 35.649 74.288 36.089C73.455 36.532 73.504 35.795 73.504 35.207C73.504 34.619 73.797 33.98 74.14 33.637C74.485 33.293 74.485 33.145 73.993 32.998C73.503 32.85 72.963 33.098 72.277 33.391C71.591 33.685 70.462 34.177 69.777 34.521C69.091 34.864 68.061 34.814 68.061 34.814C68.061 34.814 68.208 33.834 68.011 33.587C67.815 33.342 67.178 33.243 67.178 33.243C67.178 33.243 67.128 32.949 66.492 32.606C65.854 32.262 65.708 32.85 65.708 32.85C65.708 32.85 66.002 32.9 66.15 33.046C66.297 33.194 66.297 33.686 66.297 33.686C66.297 33.686 66.002 33.881 65.757 34.224C65.513 34.568 65.856 34.961 65.856 34.961C65.856 34.961 65.366 34.813 64.875 34.765C64.386 34.715 64.14 35.403 64.14 35.403C64.14 35.403 63.846 35.158 63.6 35.304C63.354 35.452 63.011 35.648 62.865 36.04C62.718 36.433 63.307 36.482 63.503 36.237C63.7 35.991 64.238 36.09 64.289 36.334C64.337 36.581 64.534 36.875 64.876 36.678C65.219 36.482 65.857 36.579 65.857 36.579C65.857 36.579 64.975 37.119 64.632 37.659C64.289 38.199 64.731 38.739 64.829 39.279C64.926 39.82 65.515 39.966 65.515 39.966C65.515 39.966 65.613 38.986 65.907 39.033C66.2 39.083 66.543 38.541 66.543 38.541C66.543 38.541 66.543 38.492 66.691 38.003C66.837 37.511 67.524 37.855 67.524 37.855L67.523 37.86ZM72.327 52.095C72.132 52.585 72.231 52.831 72.524 52.93C72.818 53.027 73.161 52.93 73.161 52.93C73.161 52.93 72.818 53.126 73.21 53.518C73.602 53.911 74.09 53.765 74.09 53.765C74.09 53.765 74.043 53.421 73.945 53.175C73.846 52.93 74.14 52.683 74.14 52.683C74.14 52.683 74.63 52.683 74.68 52.291C74.729 51.898 74.384 51.555 74.384 51.555C74.384 51.555 74.434 51.211 74.68 51.015C74.924 50.818 75.415 50.771 75.415 50.771C75.415 50.771 75.267 51.261 75.462 51.753C75.659 52.243 76.052 52.587 76.443 52.587C76.835 52.587 77.228 52.537 77.228 52.537C77.228 52.537 76.835 52.44 76.638 52.046C76.443 51.655 76.688 51.016 76.688 51.016C76.688 51.016 76.835 51.554 77.326 51.752C77.816 51.947 78.256 52.095 78.65 51.898C79.042 51.702 79.434 51.458 79.434 51.458C79.434 51.458 79.089 51.554 78.699 51.114C78.307 50.674 78.404 50.231 78.404 50.231C78.404 50.231 78.845 50.476 79.484 50.182C80.121 49.888 80.563 49.202 80.563 49.202C80.563 49.202 79.826 49.495 79.385 48.956C78.943 48.416 79.337 47.778 80.07 47.679C80.807 47.582 80.953 47.091 81.002 46.797C81.05 46.503 80.855 46.257 80.855 46.257C80.855 46.257 80.512 46.649 80.023 46.404C79.533 46.158 79.385 45.619 79.68 45.078C79.974 44.538 80.563 43.85 81.248 43.752C81.934 43.655 82.621 43.752 82.868 42.427C83.112 41.101 83.063 40.611 82.868 40.317C82.671 40.021 82.377 40.071 82.033 40.218C81.69 40.366 80.659 40.661 79.924 40.218C79.189 39.778 77.669 39.138 76.197 40.071C74.727 41.004 74.678 41.741 74.531 42.231C74.383 42.723 73.943 42.919 73.256 42.674C72.57 42.429 72.08 42.871 71.932 43.459C71.784 44.049 71.932 44.637 71.932 44.637C71.932 44.637 72.127 44.294 72.373 44.047C72.618 43.801 73.108 43.655 73.402 44.243C73.695 44.833 73.991 44.883 74.382 44.833C74.775 44.783 74.922 44.932 74.972 45.767C75.021 46.6 75.413 47.533 73.942 48.368C72.472 49.203 72.029 49.203 71.735 48.761C71.442 48.319 71.932 47.827 71.491 47.533C71.049 47.239 70.461 47.336 70.461 47.336C70.461 47.336 70.362 46.846 69.921 46.796C69.479 46.748 69.087 46.698 69.087 46.698C69.087 46.698 69.381 47.042 69.43 47.387C69.478 47.73 69.773 47.975 69.773 47.975C69.773 47.975 69.135 48.121 69.186 48.565C69.233 49.007 69.283 49.448 69.283 49.448C69.283 49.448 68.94 49.056 68.644 49.4C68.4659 49.6102 68.3478 49.8644 68.302 50.136C68.302 50.136 67.959 49.743 67.616 50.086C67.273 50.43 66.733 51.216 67.32 51.07C67.91 50.923 68.45 50.726 68.45 50.726C68.45 50.726 68.252 51.462 68.89 51.266C69.3457 51.1274 69.8038 50.9967 70.264 50.874C70.264 50.874 69.822 51.022 69.625 51.514C69.43 52.004 69.675 52.447 69.675 52.447C69.675 52.447 69.233 52.348 69.233 52.938C69.233 53.528 69.527 53.919 69.527 53.919C69.527 53.919 69.968 53.527 70.116 53.232C70.262 52.938 70.508 52.741 70.508 52.741C70.508 52.741 70.558 53.281 70.998 52.987C71.438 52.693 71.489 52.35 71.734 51.858C71.978 51.368 72.519 51.614 72.322 52.105L72.327 52.095Z" fill="#969EA6"/>
<path d="M74.583 21.607C74.827 21.363 75.515 21.019 75.759 21.852C76.005 22.687 76.494 23.522 77.083 23.67C77.673 23.816 78.161 23.67 78.113 24.161C78.064 24.652 78.212 25.389 77.916 25.732C77.623 26.076 77.328 26.322 77.769 26.419C78.21 26.516 78.553 26.516 78.847 26.222C79.14 25.928 79.485 25.682 79.485 25.682L79.68 25.731C79.68 25.731 79.582 25.829 79.582 26.123C79.582 26.417 79.728 26.664 80.072 26.419C80.415 26.173 81.004 25.928 81.004 25.928L80.71 26.516C80.71 26.516 80.22 26.86 79.385 26.81C78.551 26.76 76.737 26.958 76.199 27.252C75.659 27.546 74.777 28.626 73.797 28.922C72.817 29.216 72.229 29.51 72.032 29.757C71.835 30.003 71.689 30.345 72.277 30.296C72.865 30.246 73.356 30.246 73.356 30.246C73.356 30.246 72.178 31.032 71.884 31.818C71.591 32.603 71.296 32.996 72.13 32.554C72.964 32.112 73.602 32.161 74.239 32.357C74.877 32.554 75.809 32.357 75.809 32.357C75.809 32.357 74.877 33.142 74.435 33.927C74.1706 34.3961 74.0039 34.9138 73.945 35.449C73.945 35.449 74.68 34.664 75.613 34.419C76.545 34.174 77.966 33.634 77.966 33.634C77.966 33.634 78.113 33.928 77.769 34.614C77.424 35.302 77.377 35.988 77.475 36.48C77.574 36.971 77.426 37.167 77.231 37.463C77.034 37.757 77.085 38.199 77.085 38.199C77.085 38.199 77.869 38.297 78.655 37.855C79.439 37.413 80.174 36.924 80.418 36.481C80.663 36.039 81.008 35.647 81.008 35.647C81.008 35.647 81.202 36.039 81.055 36.627C80.907 37.216 80.565 37.757 80.271 38.051C79.975 38.345 79.781 38.444 79.781 38.444C79.781 38.444 80.367 38.688 81.201 38.345C82.034 38.002 83.26 37.068 83.553 36.184C83.847 35.3 84.191 33.534 84.191 33.534C84.191 33.534 84.879 33.926 85.369 34.22C85.859 34.514 86.449 34.956 86.35 35.3C86.252 35.643 86.203 35.938 86.203 35.938C86.203 35.938 87.038 35.888 87.479 35.446C87.92 35.004 88.606 33.727 88.019 32.598C87.431 31.469 86.695 30.486 86.695 29.701C86.695 28.915 86.941 28.523 86.941 28.523C86.941 28.523 87.284 28.965 87.921 28.817C88.558 28.671 89.244 28.031 89.244 28.031C89.244 28.031 88.704 28.177 88.311 27.883C87.919 27.589 87.723 26.903 87.773 26.263C87.822 25.625 88.017 24.84 88.017 24.496C88.017 24.153 87.871 23.857 88.362 23.857C88.852 23.857 89.685 23.662 89.932 23.22C90.176 22.777 90.225 22.237 90.225 22.237C90.225 22.237 89.932 22.482 89.539 22.335C89.146 22.187 88.706 21.943 88.559 21.402C88.411 20.862 88.559 20.47 89.244 20.272C89.5397 20.1919 89.815 20.05 90.0516 19.8555C90.2883 19.661 90.481 19.4185 90.617 19.144C90.863 18.653 90.911 18.114 90.911 18.114C90.911 18.114 90.519 18.556 89.784 18.702C89.047 18.85 88.803 18.996 88.362 18.897C87.92 18.799 87.725 18.554 87.725 18.554C87.725 18.554 88.215 18.358 88.657 18.112C89.098 17.867 89.637 17.228 89.637 17.228L88.216 17.474C88.216 17.474 87.774 17.228 87.138 17.228C86.501 17.228 86.206 17.081 86.206 17.081L87.482 15.755C87.482 15.755 86.206 15.706 85.569 16.197C84.933 16.687 84.344 17.621 84.344 17.621C84.344 17.621 82.48 17.521 81.696 17.916C80.912 18.309 79.785 18.996 79.196 19.095C78.607 19.193 78.067 19.144 77.774 18.85C77.48 18.556 76.842 18.899 76.793 19.242C76.743 19.586 77.136 20.127 77.382 20.814C77.626 21.5 77.774 22.484 78.558 22.286C79.344 22.09 80.618 21.746 80.618 21.746L80.863 22.138C80.863 22.138 79.443 22.825 78.853 22.924C78.264 23.021 77.137 23.414 76.794 22.482C76.451 21.548 75.814 20.125 74.832 20.616C73.852 21.108 73.704 21.795 73.704 21.795L74.048 22.09C74.048 22.09 74.342 21.844 74.586 21.6L74.583 21.607ZM83.212 19.201C83.3123 19.1547 83.4254 19.1442 83.5326 19.1711C83.6397 19.198 83.7344 19.2608 83.801 19.349C83.801 19.349 83.311 19.643 82.968 19.742C82.625 19.841 82.378 19.545 82.378 19.545C82.378 19.545 82.82 19.349 83.212 19.201ZM97.868 12.986C98.286 13.127 98.783 13.184 99.361 13.156C99.391 13.019 99.425 12.882 99.467 12.746C99.556 12.463 99.613 12.304 99.643 12.266C99.671 12.23 99.738 12.215 99.84 12.223L99.87 12.203L99.905 12.088L99.891 12.058C99.6789 11.9871 99.4666 11.9171 99.254 11.848C99.0196 11.7705 98.7866 11.6892 98.555 11.604L98.522 11.618L98.475 11.77L98.493 11.803C98.708 11.891 98.834 11.947 98.872 11.97C98.918 11.998 98.941 12.026 98.942 12.056C98.942 12.092 98.918 12.19 98.869 12.35C98.8223 12.5047 98.7685 12.6572 98.708 12.807C98.4975 12.8334 98.2839 12.8119 98.083 12.744C97.9012 12.6861 97.7356 12.5862 97.5996 12.4524C97.4636 12.3187 97.3609 12.1548 97.3 11.974C97.164 11.602 97.166 11.193 97.303 10.747C97.39 10.468 97.515 10.238 97.676 10.059C98.026 9.671 98.473 9.569 99.018 9.753C99.221 9.823 99.4 9.923 99.553 10.051C99.695 10.174 99.786 10.294 99.822 10.414C99.8133 10.4845 99.7999 10.5543 99.782 10.623C99.7669 10.6873 99.7506 10.7513 99.733 10.815L99.749 10.846L99.889 10.892L99.922 10.877C100.056 10.535 100.166 10.302 100.25 10.174L100.243 10.124C100.108 9.99965 99.9606 9.89065 99.802 9.799C99.5742 9.6608 99.3322 9.5478 99.08 9.462C98.657 9.319 98.284 9.27 97.965 9.319C97.267 9.423 96.806 9.837 96.582 10.56C96.408 11.116 96.442 11.612 96.683 12.049C96.923 12.486 97.32 12.799 97.869 12.986H97.868ZM85.31 10.208C85.645 10.232 85.892 10.255 86.055 10.278L86.078 10.254L86.089 10.084L86.068 10.058C85.9733 10.0473 85.8792 10.032 85.786 10.012C85.7648 10.0055 85.7461 9.99253 85.7325 9.975C85.7189 9.95746 85.711 9.93616 85.71 9.914C85.697 9.79 85.705 9.529 85.732 9.128L85.82 7.808C85.847 7.411 85.874 7.13 85.9 6.968C85.976 6.958 86.053 6.958 86.135 6.964C86.2801 6.96707 86.4228 7.00189 86.553 7.066C86.75 7.179 86.839 7.38 86.819 7.664C86.8134 7.81113 86.7685 7.95407 86.689 8.078C86.6294 8.17576 86.5448 8.25586 86.444 8.31C86.3245 8.3594 86.1942 8.37664 86.066 8.36C86.048 8.36 86.02 8.356 85.984 8.352L85.952 8.436C86.01 8.492 86.053 8.546 86.084 8.601L86.324 9.048L86.854 10.138C86.901 10.236 86.928 10.306 86.933 10.346C87.113 10.349 87.244 10.352 87.326 10.359C87.4943 10.3734 87.6623 10.3911 87.83 10.412L87.856 10.387L87.868 10.226L87.845 10.198C87.7904 10.1973 87.7372 10.1806 87.692 10.15C87.623 10.096 87.49 9.884 87.295 9.514L86.962 8.89C86.882 8.739 86.805 8.59 86.734 8.441C87.241 8.285 87.51 7.978 87.541 7.521C87.5495 7.42163 87.541 7.32153 87.516 7.225C87.4926 7.14063 87.451 7.06246 87.3939 6.99608C87.3369 6.92969 87.2659 6.87674 87.186 6.841C87.059 6.78 86.857 6.737 86.578 6.717C86.3955 6.70528 86.2128 6.69727 86.03 6.693C85.8701 6.68726 85.7104 6.67792 85.551 6.665C85.3027 6.64866 85.0549 6.62532 84.808 6.595L84.782 6.617L84.77 6.788L84.792 6.814C84.956 6.837 85.049 6.852 85.074 6.86C85.12 6.877 85.144 6.911 85.149 6.96C85.162 7.082 85.156 7.345 85.128 7.746L85.039 9.082C85.013 9.483 84.985 9.742 84.954 9.862C84.9505 9.88393 84.9403 9.90422 84.9246 9.92001C84.909 9.9358 84.8889 9.94629 84.867 9.95C84.842 9.955 84.747 9.956 84.582 9.955L84.555 9.978L84.544 10.148L84.567 10.173C84.717 10.173 84.966 10.187 85.313 10.213L85.31 10.208ZM92.944 9.61C92.811 10.214 92.746 10.592 92.752 10.743C92.7595 10.9736 92.8563 11.1924 93.022 11.353C93.222 11.552 93.527 11.701 93.94 11.8C94.393 11.908 94.77 11.854 95.077 11.637C95.308 11.473 95.477 11.146 95.585 10.657L95.753 9.899C95.813 9.629 95.861 9.424 95.897 9.282C95.945 9.09 95.984 8.968 96.009 8.914C96.055 8.817 96.173 8.789 96.359 8.834L96.388 8.816L96.424 8.65L96.404 8.62C96.094 8.556 95.882 8.51 95.774 8.484C95.6327 8.44989 95.4926 8.41086 95.354 8.367L95.324 8.385L95.289 8.551L95.307 8.581C95.463 8.628 95.556 8.664 95.589 8.687C95.629 8.717 95.649 8.748 95.654 8.784C95.659 8.832 95.648 8.931 95.618 9.08C95.586 9.238 95.523 9.534 95.428 9.963L95.313 10.475C95.283 10.613 95.246 10.748 95.202 10.88C95.1698 10.9874 95.1234 11.09 95.064 11.185C95.0122 11.2555 94.9447 11.313 94.867 11.353C94.682 11.456 94.45 11.476 94.175 11.41C93.753 11.309 93.52 11.108 93.475 10.806C93.451 10.653 93.51 10.266 93.647 9.644L93.76 9.136C93.847 8.745 93.912 8.492 93.958 8.378C93.9655 8.35739 93.9791 8.33951 93.9969 8.32668C94.0148 8.31385 94.036 8.30665 94.058 8.306C94.084 8.306 94.178 8.319 94.34 8.349L94.37 8.331L94.406 8.165L94.388 8.135C94.1437 8.08904 93.901 8.03568 93.66 7.975C93.325 7.895 93.084 7.831 92.935 7.785L92.905 7.803L92.869 7.969L92.889 7.999C93.046 8.049 93.136 8.078 93.159 8.089C93.202 8.114 93.222 8.15 93.219 8.201C93.213 8.324 93.167 8.581 93.081 8.973L92.939 9.609L92.944 9.611V9.61ZM89.893 10.943C90.471 11.038 90.953 10.943 91.338 10.659C91.736 10.366 91.98 9.913 92.073 9.296C92.155 8.752 92.062 8.301 91.796 7.939C91.532 7.582 91.12 7.359 90.564 7.267C90.174 7.203 89.836 7.219 89.547 7.315C88.914 7.525 88.537 8.033 88.415 8.833C88.328 9.405 88.417 9.877 88.681 10.25C88.943 10.623 89.349 10.853 89.893 10.943ZM89.176 8.805C89.219 8.522 89.298 8.273 89.412 8.057C89.636 7.638 89.982 7.467 90.457 7.547C90.817 7.605 91.067 7.793 91.211 8.108C91.353 8.424 91.388 8.821 91.316 9.305C91.268 9.615 91.184 9.888 91.063 10.123C90.835 10.565 90.495 10.749 90.039 10.673C89.663 10.611 89.404 10.411 89.265 10.07C89.127 9.742 89.098 9.321 89.176 8.805ZM100.185 13.468C100.092 13.4461 99.9999 13.4187 99.91 13.386L99.88 13.4L99.82 13.562L99.833 13.592C99.978 13.639 100.212 13.727 100.536 13.857C100.849 13.984 101.08 14.081 101.228 14.151L101.257 14.135L101.316 13.977L101.303 13.944C101.216 13.9048 101.13 13.8614 101.047 13.814C101.029 13.801 101.014 13.7829 101.006 13.7619C100.998 13.7409 100.996 13.718 101.001 13.696C101.024 13.575 101.103 13.326 101.241 12.952L101.451 12.382C101.574 12.422 101.827 12.518 102.207 12.671C102.619 12.835 102.863 12.937 102.937 12.976L102.727 13.546C102.589 13.921 102.489 14.161 102.429 14.266C102.419 14.2858 102.403 14.3018 102.383 14.3119C102.363 14.3219 102.341 14.3255 102.319 14.322C102.226 14.2999 102.135 14.2725 102.046 14.24L102.012 14.253L101.953 14.414L101.968 14.446C102.112 14.493 102.347 14.58 102.67 14.71C102.985 14.837 103.216 14.934 103.36 15.004L103.392 14.99L103.451 14.832L103.436 14.799C103.348 14.7606 103.263 14.7172 103.18 14.669C103.161 14.6562 103.147 14.638 103.139 14.6169C103.132 14.5958 103.13 14.5728 103.136 14.551C103.157 14.429 103.237 14.181 103.375 13.806L103.836 12.556C103.974 12.181 104.072 11.94 104.135 11.834C104.145 11.8146 104.161 11.7988 104.18 11.7886C104.199 11.7784 104.221 11.7744 104.243 11.777C104.266 11.78 104.36 11.808 104.52 11.861L104.548 11.847L104.609 11.685L104.594 11.653C104.357 11.5721 104.122 11.484 103.89 11.389C103.657 11.2989 103.427 11.2008 103.2 11.095L103.169 11.106L103.11 11.267L103.126 11.3C103.277 11.372 103.362 11.415 103.382 11.43C103.421 11.461 103.436 11.5 103.426 11.548C103.403 11.668 103.324 11.918 103.187 12.293L103.044 12.683C102.765 12.5834 102.489 12.4774 102.215 12.365C101.935 12.252 101.717 12.16 101.559 12.087L101.702 11.697C101.84 11.323 101.94 11.083 102.001 10.978C102.011 10.9584 102.027 10.9425 102.046 10.9323C102.066 10.9221 102.088 10.9181 102.11 10.921C102.135 10.924 102.227 10.951 102.384 11.003L102.414 10.991L102.475 10.829L102.462 10.799C102.225 10.7178 101.99 10.6294 101.758 10.534C101.438 10.406 101.207 10.309 101.067 10.24L101.036 10.253L100.977 10.414L100.99 10.447C101.141 10.52 101.226 10.562 101.246 10.577C101.284 10.608 101.3 10.647 101.29 10.695C101.269 10.815 101.188 11.065 101.049 11.44L100.59 12.69C100.452 13.065 100.353 13.305 100.291 13.41C100.267 13.453 100.23 13.473 100.183 13.466L100.185 13.468ZM61.936 13.011C61.8468 13.0447 61.756 13.0741 61.664 13.099C61.6421 13.1032 61.6195 13.1001 61.5996 13.0902C61.5797 13.0802 61.5637 13.064 61.554 13.044C61.49 12.939 61.386 12.701 61.244 12.329L60.764 11.087C60.619 10.714 60.535 10.467 60.51 10.347C60.5042 10.325 60.5053 10.3018 60.5129 10.2804C60.5206 10.2589 60.5346 10.2404 60.553 10.227C60.573 10.213 60.658 10.167 60.807 10.093L60.822 10.063L60.76 9.903L60.729 9.891C60.576 9.966 60.353 10.065 60.059 10.19C60 10.214 59.885 10.257 59.712 10.32C59.715 10.508 59.712 10.69 59.705 10.857L59.633 12.283L59.57 13.156L58.251 11.897L57.982 11.634C57.809 11.457 57.672 11.32 57.576 11.222C57.2279 11.3923 56.8707 11.5432 56.506 11.674L56.491 11.704L56.554 11.864L56.584 11.879C56.742 11.825 56.832 11.795 56.857 11.792C56.905 11.787 56.941 11.805 56.967 11.848C57.029 11.951 57.133 12.191 57.277 12.563L57.757 13.805C57.902 14.178 57.986 14.423 58.01 14.545C58.0154 14.5666 58.0143 14.5894 58.0068 14.6104C57.9993 14.6313 57.9858 14.6497 57.968 14.663C57.948 14.679 57.863 14.723 57.713 14.798L57.7 14.831L57.763 14.99L57.793 15.001C58.1192 14.8426 58.4537 14.7018 58.795 14.579L58.808 14.548L58.747 14.388L58.716 14.375C58.6265 14.4088 58.5353 14.4381 58.443 14.463C58.4211 14.467 58.3986 14.4639 58.3787 14.4539C58.3589 14.444 58.3428 14.4279 58.333 14.408C58.271 14.303 58.168 14.065 58.023 13.693L57.393 12.065L58.478 13.095L59.062 13.659C59.31 13.899 59.51 14.099 59.664 14.26L59.814 14.196L59.862 13.084C59.882 12.635 59.895 12.375 59.9 12.304L59.986 11.02L60.599 12.605C60.743 12.978 60.827 13.223 60.852 13.345C60.8577 13.3667 60.8566 13.3896 60.849 13.4107C60.8413 13.4318 60.8273 13.4501 60.809 13.463C60.789 13.48 60.704 13.524 60.555 13.598L60.542 13.631L60.604 13.791L60.632 13.803C60.77 13.734 60.998 13.633 61.319 13.498C61.632 13.365 61.865 13.273 62.018 13.22L62.031 13.187L61.971 13.03L61.939 13.016L61.936 13.011ZM66.942 8.77C66.7601 8.58124 66.5218 8.45666 66.263 8.415C66.022 8.375 65.697 8.408 65.288 8.513C65.141 8.553 64.995 8.593 64.85 8.635C64.56 8.72 64.232 8.812 63.866 8.908C63.716 8.947 63.556 8.983 63.387 9.016L63.369 9.044L63.409 9.212L63.438 9.23C63.6 9.198 63.694 9.182 63.72 9.182C63.7421 9.18167 63.7638 9.18823 63.7821 9.20077C63.8004 9.2133 63.8143 9.23121 63.822 9.252C63.872 9.364 63.942 9.616 64.035 10.005L64.332 11.251L64.457 11.803C64.499 11.993 64.516 12.103 64.509 12.137C64.506 12.16 64.454 12.224 64.355 12.331L64.35 12.364L64.367 12.433L64.397 12.453C64.54 12.4 64.726 12.347 64.952 12.291L65.787 12.091C66.133 12.007 66.424 11.879 66.657 11.705C66.875 11.543 67.047 11.351 67.173 11.129C67.433 10.674 67.497 10.168 67.363 9.613C67.277 9.249 67.136 8.968 66.943 8.771L66.942 8.77ZM66.704 10.852C66.649 11.129 66.535 11.343 66.366 11.498C66.209 11.641 65.973 11.751 65.661 11.833C65.5191 11.8707 65.3742 11.8958 65.228 11.908C65.1756 11.7534 65.1313 11.5962 65.095 11.437L64.835 10.365C64.7239 9.92217 64.6252 9.47633 64.539 9.028C64.667 8.972 64.805 8.924 64.951 8.886C65.231 8.814 65.456 8.781 65.625 8.789C65.802 8.799 65.961 8.853 66.101 8.952C66.37 9.141 66.558 9.462 66.667 9.917C66.747 10.254 66.759 10.566 66.704 10.852ZM81.68 6.68C81.7012 6.68632 81.72 6.69901 81.7338 6.71637C81.7475 6.73372 81.7556 6.75489 81.757 6.777C81.775 6.899 81.777 7.16 81.762 7.563L81.719 8.845L81.693 9.411C81.683 9.604 81.672 9.717 81.655 9.747C81.645 9.767 81.578 9.814 81.457 9.888L81.444 9.918V9.988L81.464 10.016C81.578 10.01 81.739 10.01 81.946 10.018L82.525 10.052C82.587 10.056 82.667 10.061 82.765 10.064C83.069 10.075 83.322 10.026 83.519 9.919C83.919 9.702 84.127 9.38 84.141 8.958C84.159 8.424 83.835 8.128 83.171 8.074C83.297 8.049 83.415 8.016 83.524 7.977C83.6237 7.94084 83.7159 7.8866 83.796 7.817C83.8846 7.74592 83.9565 7.65623 84.0066 7.55427C84.0567 7.45232 84.0838 7.34059 84.086 7.227C84.0929 7.08887 84.0588 6.95177 83.988 6.833C83.855 6.613 83.561 6.496 83.11 6.48C83.012 6.476 82.892 6.475 82.75 6.476C82.569 6.478 82.369 6.476 82.146 6.466C81.8983 6.45992 81.6508 6.44592 81.404 6.424L81.38 6.447L81.373 6.619L81.396 6.646C81.56 6.662 81.654 6.674 81.68 6.682V6.68ZM82.47 7.244C82.477 7.094 82.485 6.93 82.497 6.753C82.582 6.743 82.687 6.739 82.81 6.744C83.18 6.757 83.361 6.951 83.35 7.323C83.3455 7.44757 83.3141 7.5697 83.258 7.681C83.159 7.873 82.963 7.964 82.671 7.954C82.5965 7.95285 82.5221 7.94851 82.448 7.941L82.471 7.242L82.47 7.244ZM82.398 9.392L82.438 8.22H82.659C83.169 8.238 83.415 8.501 83.397 9.007C83.389 9.257 83.324 9.449 83.205 9.587C83.078 9.732 82.9 9.799 82.674 9.791C82.5811 9.78858 82.4885 9.77922 82.397 9.763C82.394 9.63868 82.3943 9.5143 82.398 9.39V9.392ZM63.788 12.43C63.628 12.471 63.536 12.491 63.511 12.491C63.4889 12.4929 63.4669 12.4877 63.448 12.4762C63.4291 12.4647 63.4144 12.4474 63.406 12.427C63.352 12.317 63.268 12.07 63.156 11.686L62.781 10.406C62.668 10.021 62.606 9.768 62.591 9.646C62.5871 9.62383 62.5899 9.60099 62.5992 9.58048C62.6085 9.55996 62.6237 9.54272 62.643 9.531C62.664 9.518 62.751 9.481 62.907 9.421L62.924 9.391L62.876 9.226L62.845 9.211C62.701 9.268 62.465 9.349 62.138 9.453C61.81 9.558 61.57 9.628 61.419 9.665L61.401 9.695L61.449 9.858L61.48 9.875C61.64 9.835 61.733 9.814 61.757 9.812C61.807 9.812 61.841 9.832 61.862 9.877C61.916 9.985 62 10.233 62.112 10.617L62.487 11.897C62.601 12.281 62.663 12.534 62.677 12.657C62.6811 12.6793 62.6782 12.7023 62.6687 12.7229C62.6592 12.7435 62.6436 12.7606 62.624 12.772C62.5386 12.8145 62.4508 12.8519 62.361 12.884L62.345 12.915L62.392 13.078L62.422 13.096C62.572 13.036 62.809 12.956 63.132 12.853C63.455 12.749 63.695 12.678 63.852 12.639L63.867 12.608L63.82 12.445L63.788 12.429V12.43ZM71.167 7.898C70.9977 7.69652 70.768 7.55487 70.512 7.494C70.274 7.436 69.95 7.446 69.534 7.522C69.385 7.55 69.238 7.579 69.09 7.612C68.795 7.678 68.46 7.744 68.09 7.812C67.9287 7.84144 67.7666 7.86645 67.604 7.887L67.584 7.915L67.612 8.084L67.64 8.104C67.7341 8.09007 67.8289 8.08106 67.924 8.077C67.971 8.082 68.004 8.109 68.02 8.157C68.061 8.271 68.116 8.527 68.183 8.922L68.396 10.186L68.483 10.746C68.513 10.936 68.523 11.05 68.513 11.081C68.508 11.103 68.45 11.164 68.347 11.264L68.34 11.297L68.352 11.366L68.382 11.387C68.529 11.346 68.718 11.307 68.947 11.267L69.792 11.127C70.143 11.07 70.442 10.963 70.686 10.807C70.914 10.662 71.1 10.483 71.241 10.27C71.529 9.834 71.628 9.335 71.533 8.77C71.47 8.403 71.349 8.112 71.168 7.9L71.167 7.898ZM70.79 9.96C70.716 10.233 70.59 10.44 70.41 10.58C70.242 10.711 70.001 10.805 69.685 10.862C69.5408 10.8891 69.3946 10.9042 69.248 10.907C69.2072 10.7486 69.1738 10.5885 69.148 10.427L68.959 9.339C68.877 8.88916 68.8087 8.43695 68.754 7.983C68.886 7.935 69.027 7.899 69.174 7.873C69.458 7.82 69.686 7.803 69.854 7.825C70.0246 7.8443 70.1859 7.91313 70.318 8.023C70.574 8.231 70.739 8.565 70.818 9.025C70.875 9.367 70.866 9.679 70.79 9.96ZM80.682 8.282C80.5926 8.14771 80.461 8.04707 80.308 7.996C80.222 7.96375 80.1328 7.94063 80.042 7.927C79.9474 7.91089 79.8528 7.89556 79.758 7.881C79.432 7.831 79.225 7.781 79.136 7.723C79 7.635 78.931 7.493 78.928 7.299C78.9236 7.21782 78.9366 7.13664 78.9659 7.0608C78.9952 6.98496 79.0402 6.91619 79.098 6.859C79.222 6.737 79.392 6.673 79.611 6.67C79.7537 6.66664 79.8954 6.69357 80.027 6.749C80.1329 6.78849 80.2252 6.85756 80.293 6.948C80.306 7.008 80.316 7.138 80.324 7.342L80.349 7.367L80.501 7.363L80.527 7.337C80.531 7.057 80.55 6.813 80.585 6.612L80.567 6.552C80.332 6.428 80.026 6.371 79.648 6.377C79.228 6.386 78.902 6.499 78.668 6.719C78.449 6.929 78.342 7.207 78.348 7.552C78.354 7.884 78.46 8.128 78.668 8.282C78.807 8.384 79.092 8.466 79.523 8.527C79.715 8.553 79.855 8.589 79.94 8.634C80.114 8.723 80.204 8.875 80.208 9.092C80.2108 9.22191 80.1801 9.35035 80.119 9.465C80.001 9.7 79.781 9.82 79.461 9.827C79.2901 9.82984 79.1212 9.79069 78.969 9.713C78.838 9.65687 78.7273 9.56194 78.652 9.441C78.6319 9.31762 78.6205 9.19298 78.618 9.068V9.008L78.593 8.984L78.439 8.987L78.415 9.012C78.421 9.37 78.403 9.646 78.36 9.84L78.39 9.896C78.718 10.052 79.054 10.126 79.392 10.121C79.6337 10.1229 79.8733 10.0753 80.096 9.981C80.3208 9.88179 80.5106 9.71748 80.6411 9.50928C80.7716 9.30108 80.8367 9.05855 80.828 8.813C80.8318 8.62506 80.7822 8.4399 80.685 8.279L80.682 8.282ZM77.86 9.222L77.713 9.23L77.69 9.26L77.649 9.577C77.6442 9.63019 77.6307 9.68222 77.609 9.731C77.6001 9.74485 77.5872 9.75567 77.572 9.762C77.467 9.807 77.178 9.842 76.707 9.868L76.379 9.886C76.3606 9.6726 76.3459 9.4589 76.335 9.245L76.295 8.474C76.5089 8.4474 76.7244 8.43604 76.94 8.44C77.073 8.444 77.152 8.464 77.18 8.499C77.207 8.533 77.225 8.649 77.235 8.842L77.261 8.865L77.424 8.857L77.447 8.834C77.4321 8.64783 77.4194 8.46148 77.409 8.275C77.401 8.119 77.396 7.945 77.391 7.758L77.366 7.733L77.216 7.741L77.193 7.767C77.194 7.965 77.183 8.08 77.16 8.111C77.142 8.135 77.058 8.151 76.91 8.161L76.594 8.181C76.515 8.186 76.41 8.188 76.284 8.186L76.257 7.664C76.2429 7.41826 76.2395 7.17203 76.247 6.926C76.39 6.908 76.533 6.893 76.673 6.885C76.791 6.878 76.927 6.878 77.084 6.882C77.24 6.887 77.329 6.9 77.347 6.922C77.373 6.952 77.391 7.082 77.406 7.312L77.432 7.337L77.573 7.329L77.596 7.299L77.601 7.064C77.603 7.002 77.606 6.924 77.613 6.836L77.631 6.553L77.603 6.533C76.751 6.591 76.176 6.627 75.872 6.643C75.531 6.661 75.28 6.67 75.116 6.67L75.093 6.694L75.101 6.865L75.126 6.888C75.291 6.888 75.385 6.893 75.411 6.898C75.4326 6.90257 75.4525 6.91346 75.468 6.9293C75.4835 6.94515 75.4939 6.96522 75.498 6.987C75.526 7.107 75.548 7.368 75.568 7.769L75.632 9.049L75.652 9.616C75.659 9.808 75.656 9.92 75.642 9.953C75.634 9.974 75.572 10.027 75.457 10.113L75.446 10.143L75.449 10.214L75.475 10.239C75.681 10.2152 75.8878 10.1986 76.095 10.189L77.857 10.109L77.882 10.081C77.8647 9.80179 77.8683 9.52166 77.893 9.243L77.865 9.218L77.86 9.222ZM74.804 9.462L74.774 9.44L74.627 9.458L74.606 9.49L74.584 9.808C74.5831 9.8615 74.5737 9.91452 74.556 9.965C74.5481 9.97954 74.5353 9.99085 74.52 9.997C74.419 10.05 74.133 10.106 73.666 10.165L73.339 10.208C73.3049 9.99672 73.2759 9.78466 73.252 9.572L73.075 8.07C73.028 7.672 73.008 7.41 73.015 7.288C73.0151 7.26543 73.022 7.24342 73.0349 7.22486C73.0477 7.2063 73.0659 7.19206 73.087 7.184C73.11 7.174 73.203 7.154 73.365 7.124L73.387 7.099L73.367 6.926L73.341 6.906C73.171 6.939 72.919 6.976 72.59 7.018C72.27 7.059 72.027 7.084 71.861 7.095L71.84 7.122L71.86 7.292L71.886 7.314C72.05 7.304 72.145 7.301 72.171 7.302C72.1931 7.30479 72.2138 7.31436 72.2303 7.3294C72.2468 7.34444 72.2582 7.36421 72.263 7.386C72.299 7.503 72.339 7.762 72.386 8.16L72.536 9.434L72.594 9.997C72.614 10.19 72.619 10.303 72.608 10.334C72.601 10.356 72.542 10.414 72.434 10.507L72.424 10.538L72.432 10.608L72.46 10.632C72.578 10.605 72.783 10.574 73.077 10.538L74.829 10.329L74.85 10.299C74.8158 10.0217 74.8004 9.74239 74.804 9.463V9.462Z" fill="#969EA6"/>
</svg>