<?xml version="1.0" encoding="utf-8"?>
<svg xmlns="http://www.w3.org/2000/svg" fill="none" height="80" viewBox="0 0 163 80" width="163">
  <g fill="#969ea6">
    <path d="m79.9 52.9c.6.5 1.3.3 2.2-.3-.6-.7-1.2-1.4-1.7-2-1.3.9-1 2-.5 2.3z"/>
    <path d="m55.5 13.3v53.1h53.1v-53.1zm13.2 43h-7.8v-16.5h7.7c3.4 0 5.1 1.7 5.1 4 0 1.8-.5 3-2.3 3.9 1.7.6 2.7 1.9 2.7 3.9-.1 3.1-2.6 4.7-5.4 4.7zm15.6 0c-.1-.3-.2-.7-.4-1-1.3.9-2.5 1.2-3.6 1.2-2.7.1-4.9-1.4-4.7-4.3.1-1.6 1.3-2.9 2.6-3.8-.7-.8-1.4-1.9-1.4-3 0-1.9 1.7-3.6 4.6-3.6 2.8 0 4.3 1.7 4.3 3.4 0 1.5-.9 2.8-2.3 3.7.5.5.9 1 1.3 1.5.3-.3.6-.5.9-.8l2 2.3c-.3.4-.6.7-1 1 .8 1.2 1.3 2.4 1.4 3.3h-3.7zm19.2-.1h-7.8c-4.6 0-7.3-3.1-7.3-8.3 0-5 2.7-8.3 7.3-8.3 5 0 7.7 2.9 7.5 8.2-.1 2.4-.9 4.3-2 5.4h2.3z"/>
    <path d="m81.4 44.4c-.5 0-.9.5-.9 1 0 .4.3.9.8 1.4.8-.5 1-1 1-1.4 0-.5-.4-1-.9-1z"/>
    <path d="m68.3 44.8c0-.9-.5-1.3-1.4-1.3h-.7v2.6h.7c.9.1 1.4-.4 1.4-1.3z"/>
    <path d="m95.7 43.8c-1.3 0-1.9 1.3-1.9 4.1s.6 4.1 1.9 4.1 1.9-1.3 1.9-4.1-.6-4.1-1.9-4.1z"/>
    <path d="m67.1 49.6h-.9v2.9h.9c1 0 1.5-.5 1.5-1.5 0-.9-.6-1.4-1.5-1.4z"/>
  </g>
</svg>