<?xml version="1.0" encoding="utf-8"?>
<svg xmlns="http://www.w3.org/2000/svg" width="163" height="80" viewBox="0 0 163 80" fill="none">
<g clip-path="url(#clip0_1680_5035)">
<mask id="mask0_1680_5035" style="mask-type:luminance" maskUnits="userSpaceOnUse" x="35" y="6" width="92" height="11">
<path d="M126.777 6.98113H35.1137V16.3562H126.777V6.98113Z" fill="white"/>
</mask>
<g mask="url(#mask0_1680_5035)">
<path d="M35.1137 7.00305C35.3225 7.82094 36.0304 8.65591 37.0009 8.8659H39.9356L40.0856 8.92451V16.3268H41.9179V8.92451L42.0827 8.8659H45.0197C46 8.61316 46.6934 7.82215 46.8996 7.00439V6.98476H35.1137V7.00305Z" fill="#979EA5"/>
<path d="M99.1633 6.99336L97.3395 6.99941V16.3489H105.698C106.611 15.9619 107.1 15.2905 107.292 14.5081H99.1583L99.1645 6.99336H99.1633Z" fill="#979EA5"/>
<path d="M85.1177 8.83659C86.087 8.55589 86.9036 7.80884 87.1014 6.98853L76.873 7.00439V12.5208H85.2446V14.4605L78.6785 14.4653C77.6482 14.7522 76.7779 15.4419 76.342 16.3549L76.873 16.3453H87.044V10.6848H78.6785V8.83659H85.1177Z" fill="#979EA5"/>
<path d="M116.302 16.3453H118.115V12.5818H124.715V16.3453H126.526V10.7019L116.302 10.6908V16.3453Z" fill="#979EA5"/>
<path d="M58.0228 8.85608H64.9931C65.9622 8.6633 66.6838 7.80884 66.8851 6.98113H56.1307C56.3309 7.80884 57.062 8.6633 58.0228 8.85608Z" fill="#979EA5"/>
<path d="M58.0228 12.5525H64.9931C65.9622 12.3596 66.6838 11.5051 66.8851 10.6774H56.1307C56.3309 11.5039 57.062 12.3584 58.0228 12.5525Z" fill="#979EA5"/>
<path d="M58.0228 16.3477H64.9931C65.9622 16.1536 66.6838 15.3003 66.8851 14.4726H56.1307C56.3309 15.3003 57.062 16.1536 58.0228 16.3477Z" fill="#979EA5"/>
<path d="M117.913 8.86227H124.885C125.854 8.67056 126.574 7.81489 126.777 6.98718H116.021C116.221 7.81489 116.953 8.66935 117.913 8.86227Z" fill="#979EA5"/>
</g>
<path d="M36.475 36.3305H37.6853V33.9983H39.1417C40.7063 33.9983 41.9954 33.1816 41.9954 31.5679V31.5383C41.9954 30.1214 40.9325 29.1669 39.2794 29.1669H36.475V36.3305ZM37.6853 32.916V30.2592H39.181C40.1552 30.2592 40.7751 30.7118 40.7751 31.5777V31.5973C40.7751 32.3748 40.165 32.916 39.181 32.916H37.6853ZM49.0901 36.4485C51.2943 36.4485 52.8392 34.7561 52.8392 32.7486V32.729C52.8392 30.7314 51.3041 29.0489 49.1097 29.0489C46.9056 29.0489 45.3606 30.7413 45.3606 32.7486V32.7684C45.3606 34.7856 46.8957 36.4485 49.0901 36.4485ZM49.1097 35.3366C47.6534 35.3366 46.6301 34.1657 46.6301 32.7486V32.729C46.6301 31.3121 47.6436 30.1608 49.0901 30.1608C50.5464 30.1608 51.5697 31.3317 51.5697 32.7486V32.7684C51.5697 34.1853 50.5562 35.3366 49.1097 35.3366ZM58.337 36.3797H59.3701L61.1611 31.1546L62.9422 36.3797H63.9853L66.4847 29.1669H65.2251L63.4736 34.5494L61.6925 29.1471H60.669L58.8881 34.5494L57.1365 29.1669H55.8278L58.337 36.3797ZM70.4144 36.3305H75.7576V35.248H71.6149V33.2604H75.2458V32.178H71.6149V30.2494H75.7084V29.1669H70.4144V36.3305ZM80.467 36.3305H81.6774V33.8016H83.301L85.0919 36.3305H86.5286L84.5605 33.5949C85.584 33.3194 86.2924 32.6208 86.2924 31.4399V31.4203C86.2924 30.7807 86.0956 30.269 85.7118 29.8852C85.2493 29.4227 84.5507 29.1669 83.6454 29.1669H80.467V36.3305ZM81.6774 32.729V30.2592H83.547C84.5015 30.2592 85.0722 30.6921 85.0722 31.4793V31.4989C85.0722 32.2468 84.4719 32.729 83.5568 32.729H81.6774ZM92.1832 36.3797H93.2163L95.0072 31.1546L96.7883 36.3797H97.8314L100.331 29.1669H99.0713L97.3198 34.5494L95.5387 29.1471H94.5152L92.7342 34.5494L90.9827 29.1669H89.674L92.1832 36.3797ZM103.198 36.3305H104.438L105.185 34.5888H108.63L109.377 36.3305H110.647L107.488 29.1177H106.366L103.198 36.3305ZM105.628 33.5064L106.907 30.5544L108.187 33.5064H105.628ZM114.21 36.3305H119.209V35.2284H115.42V29.1669H114.21V36.3305ZM122.901 36.3305H127.9V35.2284H124.112V29.1669H122.901V36.3305Z" fill="#979EA5"/>
<path d="M37.1143 54.4003C37.8575 54.4003 38.283 54.131 38.7031 53.7111L38.2776 53.2802C37.9383 53.6034 37.626 53.7918 37.136 53.7918C36.3766 53.7918 35.8165 53.1671 35.8165 52.3755V52.3647C35.8165 51.5839 36.3766 50.9592 37.136 50.9592C37.5937 50.9592 37.9275 51.1477 38.2453 51.4492L38.6761 50.9592C38.2991 50.5984 37.863 50.3506 37.1414 50.3506C35.962 50.3506 35.1219 51.2554 35.1219 52.3755V52.3862C35.1219 53.5118 35.9727 54.4003 37.1143 54.4003ZM40.9667 54.3356H43.8909V53.7433H41.6237V52.6555H43.6109V52.0632H41.6237V51.0076H43.8639V50.4153H40.9667V54.3356ZM46.2446 54.3356H46.907V52.9516H47.7955L48.7757 54.3356H49.5618L48.4849 52.8386C49.0449 52.6879 49.4327 52.3054 49.4327 51.6592V51.6484C49.4327 51.2984 49.325 51.0183 49.115 50.8084C48.8618 50.5552 48.4795 50.4153 47.984 50.4153H46.2446V54.3356ZM46.907 52.3647V51.013H47.9302C48.4525 51.013 48.7649 51.25 48.7649 51.6808V51.6916C48.7649 52.1008 48.4364 52.3647 47.9356 52.3647H46.907ZM52.7705 54.3356H53.4329V51.0237H54.6823V50.4153H51.5157V51.0237H52.7705V54.3356ZM56.9749 54.3356H57.6373V50.4153H56.9749V54.3356ZM60.2221 54.3356H60.8844V52.7255H62.8769V52.1223H60.8844V51.0183H63.1246V50.4153H60.2221V54.3356ZM65.4588 54.3356H66.1212V50.4153H65.4588V54.3356ZM68.7058 54.3356H71.63V53.7433H69.3628V52.6555H71.35V52.0632H69.3628V51.0076H71.6031V50.4153H68.7058V54.3356ZM73.9838 54.3356H75.4323C76.6602 54.3356 77.5164 53.4794 77.5164 52.3755V52.3647C77.5164 51.2607 76.6602 50.4153 75.4323 50.4153H73.9838V54.3356ZM75.4323 51.013C76.2725 51.013 76.8218 51.6 76.8218 52.3755V52.3862C76.8218 53.1618 76.2725 53.7379 75.4323 53.7379H74.6461V51.013H75.4323ZM83.1206 54.3356H83.783V50.4153H83.1206V54.3356ZM86.3677 54.3356H87.0193V51.4977L89.2165 54.3356H89.7712V50.4153H89.1194V53.1779L86.9762 50.4153H86.3677V54.3356ZM93.6866 54.3895C94.4998 54.3895 95.0759 53.9533 95.0759 53.2263V53.2155C95.0759 52.5693 94.656 52.2731 93.8213 52.0739C93.0511 51.9016 92.868 51.7507 92.868 51.4384V51.4277C92.868 51.153 93.1158 50.9484 93.5304 50.9484C93.8912 50.9484 94.252 51.083 94.6021 51.3523L94.9629 50.8515C94.559 50.5283 94.1228 50.3614 93.5412 50.3614C92.7657 50.3614 92.211 50.8245 92.211 51.487V51.4977C92.211 52.2139 92.6741 52.467 93.5196 52.6662C94.252 52.8386 94.419 53.0002 94.419 53.2802V53.2909C94.419 53.5979 94.1389 53.8026 93.7027 53.8026C93.2073 53.8026 92.8357 53.6195 92.4534 53.2909L92.0548 53.7648C92.5288 54.1903 93.0781 54.3895 93.6866 54.3895ZM98.3188 54.3356H98.9811V51.0237H100.23V50.4153H97.064V51.0237H98.3188V54.3356ZM101.652 54.3356H102.33L102.74 53.3825H104.625L105.034 54.3356H105.728L104 50.3884H103.386L101.652 54.3356ZM102.982 52.7902L103.682 51.1746L104.382 52.7902H102.982ZM107.942 54.3356H110.678V53.7326H108.605V50.4153H107.942V54.3356ZM112.926 54.3356H115.661V53.7326H113.588V50.4153H112.926V54.3356ZM117.909 54.3356H120.833V53.7433H118.566V52.6555H120.553V52.0632H118.566V51.0076H120.806V50.4153H117.909V54.3356ZM123.187 54.3356H123.849V52.9516H124.738L125.718 54.3356H126.504L125.427 52.8386C125.987 52.6879 126.375 52.3054 126.375 51.6592V51.6484C126.375 51.2984 126.267 51.0183 126.057 50.8084C125.804 50.5552 125.422 50.4153 124.926 50.4153H123.187V54.3356ZM123.849 52.3647V51.013H124.873C125.395 51.013 125.707 51.25 125.707 51.6808V51.6916C125.707 52.1008 125.379 52.3647 124.878 52.3647H123.849Z" fill="#979EA5"/>
<mask id="mask1_1680_5035" style="mask-type:luminance" maskUnits="userSpaceOnUse" x="35" y="65" width="8" height="9">
<path d="M42.6838 65.907H35.2899V73.3009H42.6838V65.907Z" fill="white"/>
</mask>
<g mask="url(#mask1_1680_5035)">
<path d="M38.9869 65.907C36.9451 65.907 35.2899 67.5623 35.2899 69.604C35.2899 71.6457 36.9451 73.3009 38.9869 73.3009C41.0285 73.3009 42.6838 71.6457 42.6838 69.604C42.6838 67.5623 41.0285 65.907 38.9869 65.907ZM40.5125 69.2737C40.3846 69.4198 39.9797 69.774 39.9797 69.774C39.9797 69.774 39.8302 69.8785 39.873 70.087C39.9158 70.2955 39.9583 70.5666 39.9797 70.6918C40.001 70.8168 40.129 71.2338 39.6385 70.963C39.2853 70.7679 39.1642 70.6914 39.1243 70.6642C39.1065 70.6523 39.088 70.6421 39.0681 70.6337C39.0663 70.6331 39.064 70.632 39.0619 70.6312C38.9922 70.6032 38.914 70.6032 38.8444 70.6312C38.8422 70.632 38.8403 70.6331 38.8382 70.6337C38.8183 70.6417 38.7997 70.6523 38.782 70.6642C38.7418 70.6918 38.6209 70.7679 38.2678 70.963C37.7772 71.2341 37.9052 70.8168 37.9266 70.6918C37.9481 70.5666 37.9904 70.2955 38.0332 70.087C38.0761 69.8785 37.9266 69.774 37.9266 69.774C37.9266 69.774 37.5217 69.4194 37.3937 69.2737C37.2657 69.1275 37.3723 69.0235 37.4364 69.0025C37.5006 68.9814 38.1616 68.8981 38.2893 68.8774C38.4173 68.8564 38.4999 68.6725 38.4999 68.6725C38.4999 68.6725 38.6826 68.2708 38.7741 68.092C38.8548 67.9339 38.9354 67.9354 38.9531 67.9379C38.9709 67.9354 39.0514 67.9343 39.1322 68.092C39.2236 68.2708 39.4063 68.6725 39.4063 68.6725C39.4063 68.6725 39.489 68.8564 39.617 68.8774C39.7451 68.8985 40.4059 68.9818 40.4698 69.0025C40.5337 69.0231 40.6403 69.1275 40.5125 69.2737Z" fill="#979EA5"/>
</g>
<path d="M48.3163 70.8625V68.0117H49.4324C50.0903 68.0117 50.5132 68.3915 50.5132 68.9555V68.9672C50.5132 69.6095 50.0002 69.9344 49.3777 69.9344H48.798V70.8625H48.3163ZM48.798 69.5037H49.3933C49.7849 69.5037 50.0277 69.2883 50.0277 68.979V68.9711C50.0277 68.6265 49.781 68.4464 49.3933 68.4464H48.798V69.5037ZM52.1199 70.8625V68.0117H53.3847C53.745 68.0117 54.023 68.1135 54.2071 68.2975C54.3598 68.4503 54.4382 68.6539 54.4382 68.9084V68.9163C54.4382 69.3862 54.1563 69.6642 53.7489 69.7739L54.5321 70.8625H53.9604L53.2478 69.8562H52.6015V70.8625H52.1199ZM52.6015 69.4293H53.3495C53.7137 69.4293 53.9526 69.2374 53.9526 68.9397V68.9319C53.9526 68.6187 53.7255 68.4464 53.3456 68.4464H52.6015V69.4293ZM56.1452 70.8625V68.0117H58.2521V68.4425H56.623V69.21H58.068V69.6408H56.623V70.4318H58.2717V70.8625H56.1452ZM59.9564 70.8625V68.0117H60.4655L61.3505 69.3862L62.2395 68.0117H62.7486V70.8625H62.2708V68.787L61.3544 70.1538H61.3388L60.4264 68.795V70.8625H59.9564ZM64.6019 70.8625V68.0117H65.0836V70.8625H64.6019ZM68.0993 70.9056C67.3632 70.9056 66.8893 70.4787 66.8893 69.6525V68.0117H67.371V69.6368C67.371 70.1733 67.6451 70.4631 68.1112 70.4631C68.5654 70.4631 68.8395 70.1929 68.8395 69.6564V68.0117H69.3212V69.6329C69.3212 70.4787 68.8395 70.9056 68.0993 70.9056ZM71.1031 70.8625V68.0117H71.6122L72.4972 69.3862L73.3862 68.0117H73.8953V70.8625H73.4176V68.787L72.5013 70.1538H72.4855L71.5731 68.795V70.8625H71.1031ZM78.0454 70.8625V68.0117H78.5271V70.8625H78.0454ZM80.3799 70.8625V68.0117H80.8224L82.3809 70.0206V68.0117H82.8548V70.8625H82.4515L80.8538 68.7988V70.8625H80.3799ZM85.6752 70.9017C85.2327 70.9017 84.8333 70.7567 84.4887 70.4474L84.7784 70.1029C85.0566 70.3417 85.3268 70.4748 85.6869 70.4748C86.0042 70.4748 86.2079 70.326 86.2079 70.1029V70.0951C86.2079 69.8914 86.0865 69.7739 85.5539 69.6486C84.9391 69.5037 84.6023 69.3196 84.6023 68.7988V68.7911C84.6023 68.3094 85.0056 67.9725 85.5696 67.9725C85.9925 67.9725 86.3096 68.0939 86.6034 68.3289L86.341 68.6931C86.0865 68.4973 85.8241 68.3995 85.5616 68.3995C85.2601 68.3995 85.08 68.5481 85.08 68.7479V68.7557C85.08 68.9829 85.2132 69.0925 85.7731 69.2179C86.3801 69.3627 86.6855 69.5782 86.6855 70.048V70.0558C86.6855 70.5845 86.2666 70.9017 85.6752 70.9017ZM89.0169 70.8625V68.4542H88.1045V68.0117H90.4071V68.4542H89.4985V70.8625H89.0169ZM91.4138 70.8625L92.6747 67.9921H93.1211L94.3782 70.8625H93.873L93.5754 70.1694H92.2048L91.9072 70.8625H91.4138ZM92.3811 69.7387H93.3991L92.8902 68.5639L92.3811 69.7387ZM95.9612 70.8625V68.0117H96.4429V70.4239H97.9505V70.8625H95.9612ZM99.5582 70.8625V68.0117H100.04V70.4239H101.548V70.8625H99.5582ZM103.155 70.8625V68.0117H105.262V68.4425H103.633V69.21H105.078V69.6408H103.633V70.4318H105.282V70.8625H103.155ZM106.966 70.8625V68.0117H108.231C108.592 68.0117 108.87 68.1135 109.054 68.2975C109.206 68.4503 109.285 68.6539 109.285 68.9084V68.9163C109.285 69.3862 109.003 69.6642 108.596 69.7739L109.379 70.8625H108.807L108.094 69.8562H107.448V70.8625H106.966ZM107.448 69.4293H108.196C108.56 69.4293 108.799 69.2374 108.799 68.9397V68.9319C108.799 68.6187 108.572 68.4464 108.192 68.4464H107.448V69.4293ZM113.116 70.8625V70.4826L114.103 69.6408C114.499 69.3 114.643 69.116 114.643 68.8576C114.643 68.5717 114.436 68.4033 114.17 68.4033C113.9 68.4033 113.719 68.5481 113.5 68.8341L113.159 68.5678C113.433 68.188 113.696 67.9725 114.205 67.9725C114.753 67.9725 115.137 68.3133 115.137 68.8183V68.8263C115.137 69.2766 114.906 69.5115 114.401 69.9305L113.794 70.4396H115.168V70.8625H113.116ZM117.955 70.9096C117.207 70.9096 116.722 70.2595 116.722 69.4449V69.4371C116.722 68.6226 117.211 67.9647 117.963 67.9647C118.703 67.9647 119.197 68.6148 119.197 69.4293V69.4371C119.197 70.2517 118.707 70.9096 117.955 70.9096ZM117.963 70.4748C118.417 70.4748 118.699 70.0128 118.699 69.4449V69.4371C118.699 68.8693 118.406 68.3995 117.955 68.3995C117.501 68.3995 117.219 68.8537 117.219 69.4293V69.4371C117.219 70.005 117.509 70.4748 117.963 70.4748ZM120.674 70.8625V70.4826L121.661 69.6408C122.056 69.3 122.201 69.116 122.201 68.8576C122.201 68.5717 121.993 68.4033 121.727 68.4033C121.457 68.4033 121.277 68.5481 121.057 68.8341L120.717 68.5678C120.991 68.188 121.253 67.9725 121.762 67.9725C122.311 67.9725 122.694 68.3133 122.694 68.8183V68.8263C122.694 69.2766 122.463 69.5115 121.958 69.9305L121.351 70.4396H122.726V70.8625H120.674ZM125.648 70.8625V70.2204H124.203L124.109 69.8757L125.699 67.9921H126.11V69.8249H126.521V70.2204H126.11V70.8625H125.648ZM124.681 69.8249H125.648V68.6578L124.681 69.8249Z" fill="#979EA5"/>
</g>
<defs>
<clipPath id="clip0_1680_5035">
<rect width="163" height="80" fill="white"/>
</clipPath>
</defs>
</svg>