<?xml version="1.0" encoding="utf-8"?>
<svg xmlns="http://www.w3.org/2000/svg" width="282" height="107" viewBox="0 0 282 107" fill="none">
<g clip-path="url(#clip0_1491_254)">
<path d="M79.5 107C109.047 107 133 83.0472 133 53.5C133 23.9528 109.047 0 79.5 0C49.9528 0 26 23.9528 26 53.5C26 83.0472 49.9528 107 79.5 107Z" fill="#92D8FF"/>
<g filter="url(#filter0_d_1491_254)">
<path d="M56.5369 44.1051C56.5369 28.1221 61.1034 15.3527 77.2556 15.3527C93.4077 15.3527 97.8051 28.1221 97.8051 44.1051C97.8051 59.919 93.4077 72.6885 77.2556 72.6885C61.1034 72.6885 56.5369 59.919 56.5369 44.1051ZM68.3761 44.1051C68.3761 53.4074 70.4903 61.1875 77.2556 61.1875C83.9363 61.1875 85.9659 53.4074 85.9659 44.1051C85.9659 34.7183 83.9363 26.8537 77.2556 26.8537C70.4903 26.8537 68.3761 34.7183 68.3761 44.1051Z" fill="#2D3D4D"/>
</g>
<ellipse cx="97.8428" cy="61.1429" rx="10.7" ry="10.7" fill="#92D8FF"/>
<g filter="url(#filter1_d_1491_254)">
<path d="M101.301 55.0286L95.2004 67.0781H94.3288L100.43 55.0286H101.301ZM92.4929 57.4277C92.4929 56.1028 93.5685 55.0286 94.9593 55.0286C96.3316 55.0286 97.4442 56.1028 97.4442 57.4277C97.4442 58.7705 96.3316 59.809 94.9593 59.809C93.5685 59.809 92.4929 58.7705 92.4929 57.4277ZM93.5499 57.4277C93.5499 58.1976 94.1619 58.7884 94.9593 58.7884C95.7382 58.7884 96.3872 58.1976 96.3872 57.4277C96.3872 56.6758 95.7382 56.0491 94.9593 56.0491C94.1619 56.0491 93.5499 56.6758 93.5499 57.4277ZM98.2416 64.8759C98.2416 63.551 99.3172 62.4767 100.708 62.4767C102.08 62.4767 103.193 63.551 103.193 64.8759C103.193 66.2187 102.08 67.2571 100.708 67.2571C99.3172 67.2571 98.2416 66.2187 98.2416 64.8759ZM99.2986 64.8759C99.2986 65.6458 99.9106 66.2366 100.708 66.2366C101.487 66.2366 102.136 65.6458 102.136 64.8759C102.136 64.1239 101.487 63.4973 100.708 63.4973C99.9106 63.4973 99.2986 64.1239 99.2986 64.8759Z" fill="#2D3D4D"/>
</g>
<g clip-path="url(#clip1_1491_254)">
<path d="M43.0043 66.3734L44.7857 70.4319L43.6929 70.9147L42.4504 68.0933L40.7439 68.8628L41.7319 71.0957L40.6391 71.5785L39.6511 69.3456L36.9566 70.5526L36.4177 69.3154L43.0043 66.3734Z" fill="#2D3D4D"/>
<path d="M45.3097 71.2466L45.9833 72.4083L39.741 76.0595L39.0674 74.8977L45.3097 71.2466Z" fill="#2D3D4D"/>
<path d="M44.232 82.4867L43.4836 81.5061L45.5643 76.3763L41.792 79.2731L40.9836 78.2019L46.7319 73.7964L47.4804 74.7922L45.4146 79.8615L49.157 76.9949L49.9653 78.0661L44.2171 82.4717L44.232 82.4867Z" fill="#2D3D4D"/>
<path d="M50.07 85.8663L48.109 84.0106L46.4324 84.8404L45.3845 83.8597L52.2855 80.4047L53.3483 81.4004L50.3993 88.567L49.3664 87.5863L50.0849 85.8512L50.07 85.8663ZM49.2317 83.4523L50.549 84.6895L51.7615 82.0341L49.2317 83.4523Z" fill="#2D3D4D"/>
<path d="M56.2824 92.5802L55.2644 91.9013L55.5489 86.3642L52.9442 90.3624L51.8364 89.6231L55.8033 83.5428L56.8512 84.2369L56.5668 89.7136L59.1415 85.7607L60.2643 86.5L56.2973 92.5802H56.2824Z" fill="#2D3D4D"/>
<path d="M64.8299 95.0696C63.9018 95.643 62.7042 95.7486 61.5516 95.2658C59.6654 94.4511 58.872 92.2785 59.6804 90.3925C60.4888 88.4915 62.5995 87.5863 64.4856 88.401C65.6083 88.8838 66.3568 89.8192 66.5813 90.8753L65.294 91.162C65.1293 90.4981 64.6802 89.8796 63.9767 89.5778C62.7791 89.0498 61.4468 89.6683 60.9079 90.9206C60.384 92.1578 60.848 93.5609 62.0606 94.089C62.7791 94.3907 63.5575 94.3153 64.1713 93.9381L64.8449 95.0696H64.8299Z" fill="#2D3D4D"/>
<path d="M67.9286 89.8041L72.2548 90.8904L71.9704 92.0522L68.9316 91.2827L68.4825 93.1234L71.147 93.7872L70.8626 94.949L68.1981 94.2851L67.7639 96.0202L70.9075 96.8047L70.6231 97.9664L66.1921 96.85L67.9436 89.7891L67.9286 89.8041Z" fill="#2D3D4D"/>
<path d="M82.2095 96.9103L79.515 97.0008L78.9162 98.7811L77.4941 98.8264L79.9641 91.4637L81.4162 91.4185L84.3502 98.6152L82.9281 98.6604L82.2095 96.9103ZM79.9342 95.8089L81.7455 95.7485L80.7425 93.0026L79.9342 95.8089Z" fill="#2D3D4D"/>
<path d="M85.009 91.1016L87.2843 95.8391L87.7783 90.6038L89.1555 90.3624L88.2723 97.9061L87.0897 98.1173L83.6467 91.3581L85.0239 91.1167L85.009 91.1016Z" fill="#2D3D4D"/>
<path d="M95.0235 94.1644L92.4787 95.0394L92.4188 96.9254L91.0715 97.3931L91.2961 89.623L92.6583 89.1553L97.5384 95.1601L96.2061 95.6278L95.0235 94.1794V94.1644ZM92.5236 93.7721L94.2301 93.1837L92.4787 90.8602L92.5236 93.7721Z" fill="#2D3D4D"/>
<path d="M95.772 87.8578L96.9695 87.2694L100.113 93.8174L98.9156 94.4058L95.772 87.8578Z" fill="#2D3D4D"/>
<path d="M98.4065 86.5603L99.5442 85.8512L102.718 91.0111L105.083 89.5325L105.712 90.5585L102.209 92.7461L98.4215 86.5603H98.4065Z" fill="#2D3D4D"/>
<path d="M109.125 85.5495L107.059 87.2996L107.688 89.0799L106.595 90.0003L104.005 82.6678L105.113 81.7324L111.834 85.5344L110.756 86.4547L109.125 85.5344V85.5495ZM106.655 86.0926L108.032 84.9158L105.562 83.3769L106.655 86.0775V86.0926Z" fill="#2D3D4D"/>
<path d="M112.658 78.6847C113.406 78.1415 114.334 78.3528 114.813 78.7601C115.711 79.5296 115.921 80.8271 115.008 81.8983L113.032 84.2368L107.538 79.5145L109.379 77.3419C110.203 76.3763 111.295 76.2405 112.224 77.0401C112.628 77.3872 112.942 77.9605 112.673 78.6847H112.658ZM111.52 79.3183C111.834 78.9412 111.73 78.4735 111.355 78.1566C110.966 77.8247 110.532 77.8398 110.188 78.2321L109.304 79.2731L110.607 80.3896L111.52 79.3183ZM111.46 81.1138L112.987 82.4264L114.05 81.1741C114.424 80.7215 114.259 80.1482 113.885 79.8162C113.526 79.4994 112.912 79.4089 112.508 79.8766L111.46 81.0987V81.1138Z" fill="#2D3D4D"/>
<path d="M111.52 74.5658L112.238 73.4192L117.328 76.6479L118.81 74.2792L119.813 74.9128L117.612 78.4282L111.505 74.5658H111.52Z" fill="#2D3D4D"/>
<path d="M114.125 70.2357L115.966 66.132L117.059 66.6298L115.771 69.5115L117.478 70.2961L118.615 67.7765L119.693 68.2744L118.555 70.794L120.172 71.5333L121.504 68.561L122.597 69.0589L120.711 73.2532L114.139 70.2508L114.125 70.2357Z" fill="#2D3D4D"/>
</g>
</g>
<g clip-path="url(#clip2_1491_254)">
<circle cx="202.5" cy="53.5" r="53.5" fill="#FC9994"/>
<path d="M161.412 53.9236C162.373 53.9236 163.152 53.1444 163.152 52.1832C163.152 51.2221 162.373 50.4429 161.412 50.4429C160.451 50.4429 159.672 51.2221 159.672 52.1832C159.672 53.1444 160.451 53.9236 161.412 53.9236Z" fill="#2D3D4D"/>
<path d="M242.455 53.9236C243.416 53.9236 244.195 53.1444 244.195 52.1832C244.195 51.2221 243.416 50.4429 242.455 50.4429C241.494 50.4429 240.714 51.2221 240.714 52.1832C240.714 53.1444 241.494 53.9236 242.455 53.9236Z" fill="#2D3D4D"/>
<path d="M169.923 33.0035C171.016 31.654 172.588 31.5974 173.518 32.0292C175.392 32.9078 176.337 35.036 175.27 37.3299L172.962 42.2976L161.643 37.0242L163.794 32.3926C164.766 30.318 166.596 29.5439 168.542 30.4388C169.287 30.7783 170.043 31.6048 169.923 33.0035ZM168.163 34.7081C168.461 34.0652 168.164 33.4103 167.492 33.0869C166.791 32.763 166.131 32.9119 165.801 33.6279L164.907 35.5418L167.254 36.6365L168.163 34.7081ZM169.257 37.562L172.005 38.8418L173.104 36.4748C173.481 35.6565 172.954 34.8937 172.282 34.5851C171.638 34.2918 170.733 34.3767 170.34 35.2537L169.257 37.562Z" fill="#2D3D4D"/>
<path d="M181.482 24.4678L176.082 18.5096L178.062 16.6639L183.462 22.6221C185.365 24.7232 184.902 27.6309 183.011 29.4046C181.106 31.1928 178.194 31.4285 176.29 29.3421L170.89 23.3839L172.886 21.5091L178.286 27.4673C179.153 28.4278 180.492 28.3371 181.332 27.5585C182.143 26.7794 182.349 25.4282 181.482 24.4678Z" fill="#2D3D4D"/>
<path d="M191.193 23.8821L189.261 18.516L182.408 13.7711L185.375 12.6393L189.796 15.9958L191.059 10.4589L194.026 9.32714L191.815 17.5818L193.733 22.9183L191.193 23.8821Z" fill="#2D3D4D"/>
<path d="M211.952 22.7852L209.617 22.3993L206.654 14.1282L205.336 21.6945L202.728 21.259L204.911 8.75118L207.303 9.15286L210.211 17.3199L211.511 9.84154L214.134 10.2773L211.952 22.7852Z" fill="#2D3D4D"/>
<path d="M226.003 15.2042C228.925 17.2081 229.601 21.1995 227.581 24.2082C225.577 27.1729 221.642 28.036 218.719 26.0322C215.811 24.0433 215.136 20.0224 217.14 17.0577C219.16 14.049 223.08 13.2151 226.003 15.2042ZM220.204 23.8082C221.906 24.9771 224.218 24.4641 225.397 22.7054C226.575 20.9467 226.206 18.582 224.504 17.4132C222.801 16.2443 220.504 16.7723 219.31 18.5454C218.132 20.3041 218.502 22.6393 220.204 23.8082Z" fill="#2D3D4D"/>
<path d="M241.652 33.7171L243.065 36.2304L230.079 38.8355L229.065 37.0196L233.944 32.1848L227.367 33.9978L226.339 32.1673L235.2 22.2257L236.599 24.7099L230.91 30.7876C232.917 30.2814 235.042 29.7017 237.065 29.1663L238.135 31.0548L233.608 35.5672L241.652 33.7171Z" fill="#2D3D4D"/>
<path d="M170.657 62.7296L172.734 67.515C173.879 70.1639 172.518 72.1648 170.624 72.9952C168.715 73.8258 166.359 73.4409 165.199 70.7922L164.206 68.4946L160.229 70.2164L159.144 67.7286L170.657 62.7296ZM169.586 66.1537L166.346 67.5584L167.293 69.7389C167.706 70.7048 168.802 70.8247 169.554 70.5073C170.277 70.1902 170.961 69.3294 170.563 68.4074L169.586 66.1537Z" fill="#2D3D4D"/>
<path d="M169.352 80.0613L166.402 81.2262L164.495 79.0882L176.915 74.1573L178.867 76.3388L172.703 88.2652L170.811 86.1564L172.257 83.3338L169.352 80.0613ZM173.409 81.1317L175.751 77.197L171.666 79.1828L173.409 81.1317Z" fill="#2D3D4D"/>
<path d="M178.456 91.8937L181.271 86.9426L180.465 78.5085L183.22 80.1218L183.504 85.7424L188.492 83.204L191.246 84.8172L183.599 88.355L180.798 93.2767L178.456 91.8937Z" fill="#2D3D4D"/>
<path d="M195.868 85.5399L198.53 85.8029L197.655 96.0215L202.324 96.4669L202.123 98.816L194.792 98.1077L195.868 85.5399Z" fill="#2D3D4D"/>
<path d="M209.093 95.1L208.659 98.2618L205.891 98.866L207.668 85.5283L210.495 84.9088L217.778 96.2638L215.052 96.8675L213.311 94.1857L209.093 95.1ZM211.974 92.0866L209.712 88.0745L209.438 92.6441L211.974 92.0866Z" fill="#2D3D4D"/>
<path d="M214.058 84.0784L222.262 79.39L223.453 81.5051L220.517 83.1827L225.566 92.0802L223.235 93.4133L218.185 84.5158L215.249 86.1935L214.058 84.0784Z" fill="#2D3D4D"/>
<path d="M223.361 78.3442L228.724 72.4801L230.461 74.0911L226.894 77.9807L229.001 79.94L232.126 76.5255L233.832 78.1074L230.708 81.5219L232.682 83.3652L236.362 79.342L238.098 80.9529L232.635 86.9356L223.361 78.3442Z" fill="#2D3D4D"/>
<path d="M245.162 67.6017L243.849 70.5423L238.745 71.2914L238.494 71.8383L242.452 73.6603L241.362 76.1132L229.9 70.8482L231.995 66.1345C233.155 63.5338 235.583 63.168 237.466 64.0286C239.099 64.7745 240.298 66.4075 239.83 68.574L245.162 67.6017ZM233.138 69.3853L236.375 70.8627L237.297 68.7939C237.716 67.8482 237.086 66.9439 236.335 66.5996C235.614 66.2697 234.507 66.3264 234.102 67.2425L233.138 69.3853Z" fill="#2D3D4D"/>
</g>
<defs>
<filter id="filter0_d_1491_254" x="15.4993" y="-10.2958" width="123.344" height="139.411" filterUnits="userSpaceOnUse" color-interpolation-filters="sRGB">
<feFlood flood-opacity="0" result="BackgroundImageFix"/>
<feColorMatrix in="SourceAlpha" type="matrix" values="0 0 0 0 0 0 0 0 0 0 0 0 0 0 0 0 0 0 127 0" result="hardAlpha"/>
<feOffset dy="15.3891"/>
<feGaussianBlur stdDeviation="20.5188"/>
<feColorMatrix type="matrix" values="0 0 0 0 0.2 0 0 0 0 0.270588 0 0 0 0 0.341176 0 0 0 0.15 0"/>
<feBlend mode="normal" in2="BackgroundImageFix" result="effect1_dropShadow_1491_254"/>
<feBlend mode="normal" in="SourceGraphic" in2="effect1_dropShadow_1491_254" result="shape"/>
</filter>
<filter id="filter1_d_1491_254" x="77.9498" y="45.9391" width="39.7861" height="41.3147" filterUnits="userSpaceOnUse" color-interpolation-filters="sRGB">
<feFlood flood-opacity="0" result="BackgroundImageFix"/>
<feColorMatrix in="SourceAlpha" type="matrix" values="0 0 0 0 0 0 0 0 0 0 0 0 0 0 0 0 0 0 127 0" result="hardAlpha"/>
<feOffset dy="5.45365"/>
<feGaussianBlur stdDeviation="7.27154"/>
<feColorMatrix type="matrix" values="0 0 0 0 0.2 0 0 0 0 0.270588 0 0 0 0 0.341176 0 0 0 0.15 0"/>
<feBlend mode="normal" in2="BackgroundImageFix" result="effect1_dropShadow_1491_254"/>
<feBlend mode="normal" in="SourceGraphic" in2="effect1_dropShadow_1491_254" result="shape"/>
</filter>
<clipPath id="clip0_1491_254">
<rect width="107" height="107" fill="white" transform="translate(26)"/>
</clipPath>
<clipPath id="clip1_1491_254">
<rect width="86.1944" height="32.6944" fill="white" transform="translate(36.4028 66.132)"/>
</clipPath>
<clipPath id="clip2_1491_254">
<rect width="107" height="107" fill="white" transform="translate(149)"/>
</clipPath>
</defs>
</svg>