<?xml version="1.0" encoding="utf-8"?>
<svg xmlns="http://www.w3.org/2000/svg" width="83" height="84" viewBox="0 0 83 84" fill="none">
<path fill-rule="evenodd" clip-rule="evenodd" d="M41.7558 1.20107C41.7558 1.03393 41.6203 0.898438 41.4532 0.898438C41.286 0.898438 41.1506 1.03393 41.1506 1.20107V23.0824L27.6419 7.80475C27.5312 7.67954 27.3399 7.66779 27.2147 7.7785C27.0895 7.88922 27.0777 8.08047 27.1884 8.20568L41.1506 23.9962V41.3384L15.1636 15.3514C15.0455 15.2333 14.8538 15.2333 14.7357 15.3514C14.6175 15.4696 14.6175 15.6612 14.7357 15.7794L40.3453 41.3891H21.4898L4.94333 26.7585C4.81812 26.6478 4.62686 26.6595 4.51615 26.7847C4.40544 26.9099 4.41719 27.1012 4.5424 27.2119L20.5761 41.3891L0.962784 41.3891C0.795647 41.3891 0.660156 41.5246 0.660156 41.6917C0.660156 41.8588 0.795647 41.9943 0.962784 41.9943H20.5761L4.5424 56.1715C4.41719 56.2822 4.40544 56.4735 4.51615 56.5987C4.62686 56.7239 4.81812 56.7357 4.94333 56.6249L21.4898 41.9943H40.9505L40.9823 42.0261L14.7356 68.2728C14.6174 68.391 14.6174 68.5826 14.7356 68.7008C14.8538 68.819 15.0454 68.819 15.1636 68.7008L41.1506 42.7138V62.3238L26.52 78.8703C26.4092 78.9955 26.421 79.1868 26.5462 79.2975C26.6714 79.4082 26.8627 79.3965 26.9734 79.2712L41.1506 63.2375V82.8509C41.1506 83.018 41.286 83.1535 41.4532 83.1535C41.6203 83.1535 41.7558 83.018 41.7558 82.8509V63.2375L55.933 79.2712C56.0437 79.3965 56.235 79.4082 56.3602 79.2975C56.4854 79.1868 56.4971 78.9955 56.3864 78.8703L41.7558 62.3238V42.7996L67.6568 68.7006C67.775 68.8188 67.9666 68.8188 68.0848 68.7006C68.2029 68.5825 68.2029 68.3908 68.0848 68.2727L41.8383 42.0261L41.87 41.9943H59.8175L77.12 57.2934C77.2452 57.4041 77.4365 57.3924 77.5472 57.2672C77.6579 57.142 77.6461 56.9507 77.5209 56.84L60.7312 41.9943L82.6126 41.9943C82.7797 41.9943 82.9152 41.8589 82.9152 41.6917C82.9152 41.5246 82.7797 41.3891 82.6126 41.3891H60.7312L76.0089 27.8804C76.1341 27.7697 76.1459 27.5784 76.0351 27.4532C75.9244 27.328 75.7332 27.3162 75.608 27.427L59.8175 41.3891H42.4753L68.0848 15.7796C68.2029 15.6614 68.2029 15.4698 68.0848 15.3516C67.9666 15.2334 67.775 15.2334 67.6568 15.3516L41.7558 41.2526V23.9962L57.0549 6.69365C57.1656 6.56844 57.1539 6.37718 57.0286 6.26647C56.9034 6.15576 56.7122 6.16751 56.6015 6.29272L41.7558 23.0824V1.20107Z" fill="#6FBEE8"/>
</svg>